<svg width="432" height="300" viewBox="0 0 432 300" fill="none" xmlns="http://www.w3.org/2000/svg">
<g clip-path="url(#clip0_24_9)">
<path d="M431.181 36.8036C431 36.4866 430.688 36.2652 430.336 36.1897C428.47 35.8324 426.881 37.4377 425.276 38.9774C424.597 39.6316 423.898 40.3109 423.244 40.7185C422.298 41.4733 421.096 42.1426 419.829 42.8521C418.848 43.3955 417.847 43.9541 416.916 44.5781C415.407 45.5845 413.913 46.9079 412.475 48.1961C411.781 48.815 411.092 49.4289 410.423 49.9875C410.096 50.2542 409.733 50.551 409.356 50.8731C408.4 51.6883 407.289 52.6242 406.172 53.2683C406.348 51.8996 406.273 50.3296 405.327 49.3736C405.015 49.0565 404.542 48.9458 404.13 49.0414C403.149 49.288 402.113 49.7812 401.016 50.3095C400.352 50.6265 399.663 50.9586 399.04 51.2052C397.968 51.5625 396.987 51.9198 396.007 52.277C395.031 52.6343 394.05 52.9916 392.918 53.369C392.41 53.5703 391.847 53.7766 391.263 53.9829C389.754 54.5213 388.049 55.1352 386.631 55.9856C386.218 56.2573 385.806 56.5794 385.378 56.9165C384.694 57.4499 383.995 57.9984 383.195 58.401C383.079 58.4614 382.964 58.5368 382.873 58.6324L382.305 59.2212C382.089 59.4476 381.837 59.7143 381.57 59.9709C381.882 58.6123 382.104 57.0474 381.269 55.6636C381.042 55.2862 380.635 55.0547 380.192 55.0547C378.718 55.0547 377.28 55.8799 375.887 56.675C375.248 57.0373 374.619 57.4046 373.93 57.6814C373.226 58.0336 372.426 58.3909 371.631 58.7431C370.826 59.1004 370.022 59.4627 369.307 59.82C365.495 61.7221 362.748 64.2079 360.047 66.8749C358.92 62.3209 356.722 58.1041 353.267 54.3301C351.657 52.5789 349.7 51.2102 347.809 49.8919C346.134 48.7194 344.55 47.6124 343.202 46.2688C341.522 44.5831 339.429 42.4848 336.864 41.0204C335.234 40.2053 333.68 38.9422 332.171 37.7194C331.331 37.0351 330.501 36.3608 329.59 35.7217C324.118 32.4358 318.203 33.1051 312.478 33.7492C310.798 33.9404 309.128 34.1266 307.559 34.2021C305.019 34.2021 302.705 33.4624 300.25 32.6723C299.038 32.2849 297.801 31.8874 296.413 31.5452C292.635 30.8608 288.837 30.8608 285.165 30.8608C279.849 30.8608 274.597 32.1842 271.071 34.4335C270.267 35.0122 269.331 35.5456 268.395 36.084C266.58 37.1307 264.698 38.2076 263.471 39.687C262.188 41.2821 260.564 42.5804 258.884 43.9289C258.773 44.0447 258.632 44.1352 258.517 44.2459C258.486 44.2007 258.501 44.1403 258.466 44.095C257.732 43.2144 257.37 40.0744 257.34 37.9811C257.284 37.5635 257.259 37.0049 257.234 36.3306C257.048 32.5516 256.706 25.5118 251.771 18.6784C247.34 12.5494 240.514 6.64685 233.714 6.42041C233.643 6.40531 233.608 6.32983 233.533 6.3248C231.475 6.13358 229.423 5.76625 227.436 5.40898C222.713 4.55857 217.829 3.68803 212.643 5.16744C204.66 7.49725 197.312 12.5142 191.95 19.3124L191.26 20.198C189.163 22.875 187.352 25.1847 186.1 28.6417C184.726 32.0685 183.705 35.4802 182.74 38.7258C179.963 46.7066 177.991 63.277 178.328 71.2477C178.328 71.2678 178.348 71.2778 178.348 71.298C178.464 78.6749 179.299 87.8432 183.454 96.8304C183.494 96.9209 183.58 96.9662 183.64 97.0417C182.624 99.1853 182.357 101.535 182.106 103.815C182.025 104.544 181.95 105.279 181.849 105.984C181.412 108.63 181.08 111.161 180.748 113.698C180.421 116.224 180.089 118.75 179.636 121.477C179.611 121.774 179.591 122.106 179.566 122.413C179.299 122.519 179.048 122.68 178.897 122.951C177.735 125.11 176.16 126.932 174.495 128.864C172.81 130.816 171.07 132.834 169.777 135.235C168.912 136.825 168.107 138.47 167.343 140.116C164.41 138.863 155.668 134.585 152.001 126.534C148.294 118.398 139.693 109.264 130.473 102.969C134.914 94.2238 137.605 81.7193 131.011 74.0203C131.826 72.2641 132.5 70.3872 132.656 68.1781C132.958 64.3488 132.636 59.8602 132.379 56.2372C131.841 49.444 129.442 41.7249 125.805 35.0575C122.525 28.994 118.376 22.246 110.73 18.8796C109.95 18.4871 109.231 18.0796 108.537 17.6921C106.193 16.3687 103.975 15.1157 100.67 15.1157C98.4418 15.1157 96.9882 15.6189 96.1029 16.6958C94.7498 18.3513 95.2377 20.7868 95.8061 23.6047C96.1431 25.3055 96.5204 26.9761 96.8876 28.6317C97.632 31.9729 98.3211 35.2034 98.7336 38.5145C95.5848 37.3471 92.8736 37.4226 90.7158 38.902C87.0891 41.3978 85.7612 47.235 85.4192 53.3086C84.6244 52.5085 83.709 51.8342 82.6225 51.4015C79.6548 50.2089 75.9779 50.5913 73.0705 52.3827L71.8885 53.062C67.9399 55.3113 62.2057 58.6324 61.2752 63.2367C61.0891 63.1612 60.8929 63.0254 60.7068 62.96C56.6677 61.7221 53.202 64.1274 50.4003 66.0597C49.6911 66.5478 49.007 67.0208 48.4839 67.3479C44.3744 69.1091 39.7116 71.5244 36.2509 76.1438C33.9874 79.3844 32.745 83.0829 32.3577 87.7929C32.2118 89.5591 32.3627 91.5468 32.5187 93.4639C32.6545 95.1748 32.6997 96.8455 32.6193 98.3953L31.4473 97.3285C31.0449 96.9662 30.4714 96.9008 29.9936 97.1574C29.5258 97.4191 29.2693 97.9475 29.3648 98.4758C29.8075 100.982 29.9181 103.568 30.0238 106.069C30.1546 109.174 30.2954 112.384 31.0449 115.585C31.06 115.655 31.0851 115.736 31.1002 115.806C29.6968 115.167 28.1073 114.432 26.0803 114.729C25.5672 114.805 25.1547 115.182 25.034 115.68C23.7312 121.15 28.5953 125.593 32.8858 129.518C34.7872 131.254 36.5779 132.895 37.5788 134.394C42.5082 144.79 54.9776 155.191 66.5919 155.373C65.6462 156.545 64.7509 157.768 63.7399 158.87C63.3727 159.237 62.8496 159.705 62.256 160.244C58.4332 163.696 55.3096 166.77 55.8579 169.508C56.3206 171.822 59.3386 174.655 65.43 178.47C69.2125 180.507 74.0413 181.469 79.1317 181.464C88.905 181.464 99.639 177.946 105.766 171.817C114.367 162.981 115.363 151.246 116.329 139.894C116.59 136.805 116.862 133.614 117.284 130.58C117.284 130.57 117.284 130.56 117.284 130.55C122.792 128.119 125.996 121.643 126.987 115.68C134.929 121.638 140.543 129.443 143.335 135.562C147.469 144.639 158.636 150.396 162.167 152.031C159.682 158.573 157.856 165.668 156.996 172.532C156.423 177.307 155.95 182.264 156.066 187.301C155.94 187.361 155.789 187.356 155.688 187.457C153.42 189.726 152.871 192.458 152.338 195.12L152.152 196.182C149.054 214.418 144.582 218.756 141.378 219.183C138.627 219.576 134.105 218.147 128.858 216.527C118.421 213.286 104.126 208.853 89.0609 213.215C85.6455 214.197 77.6025 219.038 70.5102 223.31C66.4963 225.72 62.3818 228.196 61.1092 228.699C60.9784 228.618 60.8476 228.493 60.7219 228.432C58.74 226.988 56.3659 226.988 54.2684 226.988H47.0503C42.4177 226.988 38.273 228.322 35.1795 229.474C34.5608 229.71 33.9421 229.982 33.3235 230.249C32.74 230.505 32.1565 230.762 31.6686 230.948C30.567 231.26 29.6163 231.582 28.5349 232.04C27.0007 232.659 25.4716 233.273 23.8771 234.063C21.3018 235.522 19.1238 237.107 17.1218 238.974C16.3019 239.588 15.4167 240.127 14.5616 240.645L13.5002 241.299C11.2418 242.587 9.46114 244.067 7.85154 246.004C7.52962 246.432 7.16746 246.839 6.8053 247.252C6.13631 248.007 5.44217 248.797 4.95426 249.667C4.0388 251.051 3.55089 252.525 3.12334 253.829L3.0328 254.121C2.18776 256.224 1.65458 258.363 1.29242 261.115C1.222 262.016 1.05098 262.942 0.874928 263.898C0.668698 265.015 0.46247 266.152 0.38702 267.249C0.23109 268.638 0.472528 270.424 1.0711 272.206C1.22703 272.603 1.38799 272.96 1.54895 273.323C1.68979 273.64 1.83063 273.962 2.09219 274.54C2.16261 274.646 2.20788 274.802 2.27327 274.953C2.4795 275.481 2.73603 276.146 3.34969 276.548C3.42514 276.599 3.51568 276.589 3.59616 276.624C3.26418 278.34 3.06801 280.594 3.71185 282.677C4.41605 286.018 6.41296 288.389 8.264 290.376C11.2015 293.315 13.8775 295.141 16.483 295.972C17.4538 296.254 18.3944 296.218 19.2244 296.183L19.8229 296.153C21.1106 296.314 22.4989 296.465 23.8922 296.465C26.7442 296.465 29.2592 296.304 31.6283 296.047C31.6485 296.047 31.6636 296.067 31.6837 296.067C31.7289 296.067 31.7792 296.062 31.8245 296.057C31.905 296.047 32.0006 296.012 32.081 295.997C32.5438 295.942 33.0468 295.916 33.4945 295.856C34.6212 295.735 35.7479 295.68 36.8646 295.619C39.9681 295.469 43.1722 295.308 46.2506 293.768C47.4075 293.194 48.5996 292.686 49.7967 292.183C51.0844 291.634 52.3771 291.086 53.4384 290.532C53.8962 290.391 54.2281 290.165 54.4696 289.999L54.8116 289.787C54.9927 289.692 55.5762 289.692 55.9886 289.677C56.8639 289.521 57.7391 289.284 58.6143 289.043C59.3939 288.831 60.1786 288.615 60.9532 288.474C61.7379 288.333 62.5226 288.263 63.3023 288.187C64.1724 288.107 65.0477 288.026 65.9581 287.86C67.281 287.568 68.3323 286.934 69.2578 286.376L69.7557 286.074C70.1883 285.832 70.6058 285.626 71.0132 285.425C71.8734 284.997 72.7637 284.554 73.7445 283.819C75.1982 282.521 76.4708 280.775 77.5372 279.25L78.2816 278.209C80.3288 275.366 82.4464 272.422 83.8297 269.091C85.1224 266.177 85.7411 262.962 86.1888 260.144L86.3095 259.072C86.6012 256.606 86.898 254.05 86.4906 251.655C86.3397 249.406 85.3286 247.408 84.4283 245.647L84.0661 244.927C83.0249 243.141 81.8127 241.299 79.4838 240.227C79.1769 240.076 78.86 239.905 78.5381 239.724C77.5623 239.186 76.4557 238.577 75.4044 238.345C74.7857 238.144 74.2324 238.033 73.6641 237.908C78.3822 234.29 86.6314 228.306 89.4633 227.099C95.7608 223.939 102.908 223.134 110.801 224.709C113.195 225.01 120.015 227.642 125 229.564C128.129 230.767 130.83 231.809 132.163 232.191C139.587 234.32 146.906 233.172 153.118 231.748C153.183 231.849 153.254 231.97 153.319 232.06C153.556 232.402 153.782 232.725 154.084 233.263C155.019 234.425 155.718 235.719 156.468 237.092C157.232 238.496 158.027 239.951 159.144 241.344C160.215 242.552 161.397 243.694 162.574 244.827C165.723 247.866 168.696 250.729 169.36 254.664C169.652 257.593 169.546 260.773 169.44 263.842C169.37 265.976 169.299 268.089 169.35 270.117C169.45 274.017 170.371 276.704 172.162 278.325C173.696 279.713 175.506 279.985 176.975 279.985C177.518 279.985 178.016 279.945 178.434 279.915C178.701 279.895 178.937 279.874 179.224 279.869C180.848 279.744 182.146 279.079 183.087 277.892C185.647 274.666 184.721 268.537 184.108 264.476C184.017 263.878 183.937 263.344 183.886 262.952C183.238 255.162 181.18 249.204 177.634 244.771C176.08 242.638 174.224 240.635 172.428 238.698C169.521 235.563 166.518 232.317 164.672 228.327C162.645 224.844 163.465 221.04 164.335 217.015C164.707 215.284 165.019 213.502 165.185 211.696C165.301 211.887 165.462 212.078 165.572 212.269C168.389 217.105 171.03 220.165 174.682 222.827C178.982 226.002 184.384 229.263 190.531 229.263C192.694 229.263 194.947 228.86 197.276 227.904C202.789 225.8 207.356 222.177 211.773 218.675C213.448 217.342 215.128 216.013 216.903 214.735C219.574 212.652 221.717 210.146 223.789 207.716L225.042 206.246C226.038 205.35 227.059 204.485 228.08 203.624C230.635 201.461 233.276 199.221 235.303 196.695C239.513 192.157 243.21 182.415 243.658 175.294C244.684 176.567 245.695 177.881 246.646 179.305C247.4 180.513 248.507 182.48 249.176 184.005C245.615 184.045 243.879 184.599 243.331 185.932C242.939 186.888 243.286 187.925 244.372 189.002C245.348 189.983 246.47 190.652 247.456 191.246C248.014 191.578 248.562 191.905 249.251 192.398C250.207 192.881 251.107 193.53 252.058 194.22C253.049 194.944 254.07 195.689 255.217 196.258C257.36 197.329 259.714 198.019 261.982 198.678C263.602 199.151 265.131 199.594 266.524 200.152C267.289 200.469 268.063 200.807 268.828 201.139C272.309 202.643 275.91 204.198 279.995 204.807C281.232 204.807 282.384 204.903 283.485 204.993C285.759 205.179 287.821 205.169 289.984 205.501C291.146 205.678 292.353 205.859 293.671 205.859C297.585 205.859 301.287 205.859 304.948 204.394C306.739 203.796 308.082 202.95 309.385 202.135L310.371 201.516C312.453 200.474 314.45 199.845 316.844 199.493C320.265 198.462 323.559 197.053 327.03 195.11C330.154 192.916 332.211 189.721 334.027 186.898C334.379 186.355 334.726 185.816 335.028 185.353C337.246 182.389 339.394 178.751 340.797 175.591C341.109 174.801 341.361 174.006 341.602 173.241C341.894 172.33 342.16 171.47 342.548 170.685C342.794 170.061 343.091 169.492 343.378 168.929C343.911 167.887 344.469 166.81 344.721 165.537C344.801 165.135 344.675 164.712 344.394 164.415C344.102 164.118 343.69 163.997 343.282 164.048C339.666 164.647 338.071 167.671 336.663 170.338C336.386 170.861 336.119 171.359 335.853 171.817C335.631 170.947 335.455 169.865 335.45 169.095C335.244 167.193 334.57 165.522 333.921 163.902C333.735 163.439 333.554 162.981 333.353 162.453C332.956 161.562 332.015 160.395 330.943 159.222C334.369 157.516 338.257 154.452 339.66 152.565C340.163 151.981 340.762 151.423 341.366 150.859C342.513 149.787 343.81 148.569 344.716 146.944C345.148 146.074 345.767 145.289 346.421 144.458C347.115 143.578 347.824 142.667 348.342 141.64C349.268 140.01 350.213 138.027 350.213 135.647C350.213 135.396 350.193 135.084 350.158 134.731C351.491 134.606 353.322 134.475 355.118 134.344C357.723 134.158 360.183 133.987 361.481 133.805C361.521 133.8 361.818 133.73 361.858 133.715C365.706 132.769 368.422 131.823 369.272 130.097C369.8 128.487 368.865 126.952 368.181 125.825C368.01 125.543 367.773 125.155 367.652 124.884C368.196 124.763 369.413 124.828 369.966 124.864C370.333 124.884 370.665 124.904 370.917 124.904C372.471 124.904 373.965 124.532 375.499 124.154C378.266 123.46 381.072 122.448 384.614 120.873C387.903 119.404 391.57 117.2 394.291 115.499C395.056 115.112 395.735 114.639 396.409 114.156C396.982 113.743 397.556 113.33 398.2 113.008C398.376 112.918 398.632 112.837 398.909 112.742C399.955 112.384 401.132 111.977 401.615 111.016C401.856 110.527 401.761 109.944 401.374 109.556C400.373 108.56 398.934 107.871 397.666 107.262L396.917 106.894C396.691 106.718 396.404 106.562 396.047 106.361C395.765 106.21 395.252 105.918 394.95 105.662C394.96 105.651 394.97 105.646 394.975 105.636C395.478 105.138 396.248 104.685 397.068 104.207C397.762 103.805 398.466 103.387 399.004 102.979C399.905 102.441 400.72 101.898 401.535 101.354C402.324 100.831 403.109 100.302 404.18 99.6332C405.066 98.8381 405.991 98.0632 406.917 97.2933C409.764 94.9182 412.711 92.4626 414.401 89.3578C415.503 87.5111 416.247 86.0116 416.861 84.4214L417.243 83.8729C418.239 82.469 419.612 80.5468 419.165 78.7806C419.044 78.2975 418.647 77.9302 418.154 77.8446C417.102 77.6685 416.046 77.7138 415.02 77.7641C414.467 77.7893 413.933 77.8245 413.425 77.7993C413.717 77.3867 414.039 76.9489 414.27 76.642C414.582 76.2142 414.874 75.8167 415.171 75.3638C415.488 74.7097 415.905 74.1411 416.318 73.5674C416.801 72.8982 417.273 72.2188 417.565 71.615C420.317 67.685 422.384 64.1073 424.084 60.3634C425.744 56.7203 427.625 52.5991 429.144 48.4275C429.3 47.874 429.572 47.1545 429.879 46.3443C431.076 43.1993 432.56 39.229 431.181 36.8036ZM260.564 45.8008C262.168 44.5227 263.989 43.0735 265.433 41.2771C266.358 40.165 268.038 39.1989 269.663 38.2629C270.674 37.6842 271.68 37.1055 272.495 36.5168C276.127 34.197 281.428 33.3718 285.176 33.3718C288.737 33.3718 292.419 33.3718 295.894 34.0008C297.147 34.3128 298.334 34.6952 299.496 35.0676C302.137 35.913 304.637 36.713 307.624 36.713C309.309 36.6325 311.035 36.4413 312.77 36.2451C318.067 35.6412 323.564 35.0273 328.217 37.8201C329.007 38.3786 329.792 39.0227 330.596 39.6719C332.201 40.9802 333.866 42.3338 335.687 43.2345C337.89 44.4976 339.852 46.4651 341.431 48.0501C342.935 49.5547 344.685 50.7775 346.376 51.96C348.237 53.2583 349.997 54.4861 351.421 56.0359C356.078 61.1182 358.437 67.0208 358.437 73.5724C358.443 83.9535 355.897 94.4502 350.877 104.761L350.54 105.47C346.944 113.24 340.883 120.607 337.965 123.681C337.94 123.53 337.945 123.414 337.915 123.253C337.855 123.062 337.855 122.806 337.855 122.509C337.855 122.086 337.855 121.558 337.669 120.979C337.422 120.259 337.035 119.736 336.668 119.238C336.537 119.062 336.396 118.881 336.326 118.78C334.454 115.313 331.321 112.676 328.247 110.371C327.196 109.531 326.014 108.172 324.993 106.643C323.751 104.781 322.87 104.373 320.999 104.122C320.763 104.061 320.476 104.001 320.159 103.936C319.505 103.8 318.142 103.518 317.624 103.035C317.207 102.753 316.94 102.481 316.658 102.189C316.04 101.55 315.34 100.826 313.67 100.826C312.856 100.826 312.654 100.66 311.98 100.116C311.669 99.8646 311.316 99.5829 310.808 99.2457C309.345 98.3701 306.89 97.5801 305.326 97.3235C304.395 97.1876 303.475 97.1876 302.584 97.248C304.662 95.4315 307.318 93.8313 310.17 93.5948C311.332 93.4287 312.418 93.3432 313.459 93.2576C314.651 93.162 315.798 93.0664 316.985 92.8702L317.393 92.7896C320.456 92.1858 323.796 91.3706 324.656 89.2018C325.667 86.1877 321.874 82.8716 320.35 82.147C318.238 80.4512 316.13 80.4512 313.897 80.4512C313.615 80.4512 313.364 80.4613 313.127 80.4764C312.961 80.4814 312.74 80.4965 312.71 80.5569C312.675 80.4512 312.604 80.2449 312.604 80.2449C312.544 80.0386 312.639 79.485 313.419 78.0006L313.595 77.6635C313.63 77.593 313.691 77.4219 313.706 77.3464C314.184 75.6959 314.561 74.3977 313.781 73.3561C313.072 72.4151 311.824 72.2943 310.698 72.2943C308.062 72.2943 305.698 72.5962 303.198 72.9133L302.544 73.0089C302.298 73.0089 302.046 73.024 301.81 73.0391C301.598 73.0541 301.287 73.0743 301.251 73.1598C301.266 72.9233 301.488 72.3295 301.609 72.0075C301.78 71.5546 301.925 71.1521 301.996 70.7646L302.428 70.0299C303.736 67.8108 305.22 65.2898 304.853 62.4014C304.642 60.6402 304.033 59.513 303.002 58.9545C301.971 58.406 300.713 58.5217 299.31 59.2262C295.331 60.5597 292.333 64.0217 289.698 67.0761L288.546 68.4046C288.289 68.6612 287.857 69.1996 287.338 69.8639C286.68 70.6941 285.135 72.6516 284.154 73.4567C284.245 72.9183 284.502 72.1886 284.678 71.6854C285.165 70.3167 285.668 68.8977 284.834 67.8209C284.054 66.8145 282.686 66.9302 282.132 66.9906C279.456 67.4384 277.389 68.8776 275.82 70.1406C271.418 74.1763 267.43 79.6209 264.869 85.1209C264.457 86.0719 264.105 86.9777 263.758 87.8482C263.215 89.2169 262.707 90.5051 262.012 91.894C261.821 92.377 261.6 92.8601 261.384 93.3381C260.79 94.6364 260.267 95.8692 260.202 97.087L260.186 97.092C259.663 97.3235 259.15 97.4946 258.627 97.6657C258.044 97.8619 257.46 98.0582 256.977 98.2745C256.052 98.5865 255.302 99.14 254.638 99.6332C254.347 99.8445 254.065 100.061 253.763 100.247C252.038 101.233 250.257 102.25 248.794 103.483C248.482 103.704 248.225 103.92 247.954 104.142C247.828 98.3752 247.244 93.3432 245.268 88.5527C244.77 87.1488 244.221 85.76 243.673 84.3762C242.018 80.2046 240.459 76.2595 240.424 72.0125C241.198 69.8387 241.691 67.8863 241.993 65.7175C241.993 65.3149 242.028 64.8822 242.058 64.4444C242.109 63.7953 242.149 63.0405 242.094 62.2806C242.868 60.1823 245.011 58.4563 247.295 56.6398C248.446 55.7239 249.639 54.7779 250.705 53.7061C252.224 52.0204 254.005 50.7876 255.891 49.4893C257.521 48.342 259.201 47.1796 260.564 45.8008ZM355.027 101.565C357.019 99.5678 359.086 97.6405 361.149 95.7082C363.231 93.7558 365.319 91.8084 367.285 89.8359C370.887 86.5651 374.609 83.1785 378.316 80.1392C380.378 78.2572 382.612 76.6671 384.77 75.1223C386.409 73.9448 388.044 72.7774 389.608 71.4942C392.184 69.4412 395.182 67.992 398.356 66.4622C399.15 66.0748 399.95 65.6923 400.498 65.3854C400.735 65.325 401.072 65.2093 401.464 65.0734C400.921 65.5766 400.368 66.0697 399.809 66.5629C398.28 67.9265 396.696 69.3405 395.227 71.0212C394.1 72.3094 392.767 73.5624 391.475 74.7801C390.137 76.0331 388.758 77.3263 387.601 78.6548C386.897 79.3592 386.279 80.1442 385.665 80.9393C385.112 81.6538 384.553 82.3684 384.03 82.9068L378.975 86.9475C377.793 87.969 376.686 89.071 375.58 90.173C374.513 91.2398 373.442 92.3116 372.31 93.2878C371.329 94.108 370.263 94.9232 369.202 95.7434C368.095 96.5938 366.988 97.4443 366.053 98.2343C362.975 100.388 359.443 102.376 355.43 104.207C354.786 104.6 354.076 104.927 353.397 105.249C353.976 104.036 354.434 102.818 354.947 101.601C354.972 101.581 355.002 101.591 355.027 101.565ZM316.799 158.075C313.937 158.075 311.679 158.669 309.496 159.242C305.13 160.395 300.598 161.592 290.17 158.135C273.476 152.61 268.074 145.198 266.041 142.405C266.006 142.36 265.991 142.34 265.956 142.3C265.795 142.083 265.639 141.852 265.463 141.645C265.438 141.62 265.403 141.57 265.382 141.545C265.372 141.535 265.357 141.54 265.347 141.53C263.863 139.834 262.078 138.505 260.312 137.207C259.311 136.467 258.29 135.718 257.34 134.913C256.178 133.841 255.222 132.734 254.301 131.667C251.691 128.648 249.231 125.795 243.507 125.795H242.984C243.25 125.362 243.507 124.954 243.794 124.718C244.754 124.114 245.65 123.762 246.445 123.671C249.156 123.404 251.47 123.918 252.677 125.035C252.908 125.266 253.109 125.548 253.316 125.83C253.773 126.449 254.286 127.153 255.076 127.641C255.82 128.139 256.947 128.497 258.356 128.693C258.788 128.779 259.246 128.819 259.709 128.824C259.764 128.859 259.779 128.929 259.839 128.96C260.473 129.231 261.057 129.458 261.615 129.669C263.33 130.328 264.573 130.801 265.931 132.16C266.947 133.383 268.355 134.253 269.723 135.089C270.971 135.854 272.143 136.573 272.897 137.479C272.963 137.554 273.068 137.539 273.149 137.595C273.491 138.063 273.918 138.485 274.487 138.822C274.854 139.069 275.297 139.27 275.764 139.421C276.529 140.322 277.555 141.268 278.586 142.194C279.627 143.135 280.704 144.101 281.398 144.992C282.791 147.075 284.23 149.229 286.051 151.045L286.428 151.433C287.092 152.127 288.012 153.093 289.255 153.093C289.642 153.093 290.065 152.998 290.522 152.771C292.454 152.127 292.454 150.225 292.439 148.886C292.288 147.981 292.072 147.196 291.875 146.456C291.609 145.495 291.383 144.665 291.383 143.774C291.383 143.09 291.428 142.722 291.468 142.521C291.574 142.546 291.725 142.601 291.911 142.687C293.017 143.422 293.953 144.418 294.858 145.379C295.583 146.139 296.322 146.929 297.237 147.654C298.113 148.237 300.437 149.767 301.996 148.459C303.505 147.201 303.123 143.905 300.869 138.641C300.527 137.257 300.286 135.949 301.111 135.597C301.277 135.486 301.468 135.451 301.77 135.401C302.323 135.31 303.797 135.079 303.797 133.126C303.797 131.405 302.288 129.996 301.231 129.468C300.316 129.106 299.27 128.99 298.254 128.874C297.162 128.753 296.04 128.623 295.633 128.326C295.321 128.014 296.589 126.544 297.072 125.986C297.368 125.639 297.65 125.306 297.917 124.949L298.631 123.918C299.989 121.985 301.669 119.58 301.669 116.802C301.669 115.283 301.568 113.743 300.391 113.059C299.28 112.409 297.972 112.998 296.875 113.622C295.779 114.357 294.778 115.172 293.777 115.997C292.831 116.772 291.881 117.552 291.081 118.116C289.853 118.609 288.515 118.679 287.012 118.699C287.318 118.166 287.655 117.683 287.907 117.094C288.48 115.645 288.48 114.271 288.475 112.716C288.289 110.477 287.56 108.218 286.287 105.777C286.78 105.546 287.364 105.274 287.972 104.987C289.703 104.177 291.488 103.347 292.082 102.969C292.384 102.844 292.846 102.869 293.354 102.894C294.184 102.934 295.246 102.995 296.267 102.381C296.649 102.149 297.061 101.852 297.489 101.54C298.409 100.871 299.36 100.177 300.336 100.036C301.759 99.7992 303.399 99.5678 304.928 99.7841C306.362 100.021 308.459 100.75 309.45 101.344C309.828 101.601 310.124 101.837 310.386 102.049C311.191 102.698 311.955 103.317 313.655 103.317C314.254 103.317 314.345 103.407 314.832 103.915C315.159 104.258 315.567 104.68 316.02 104.952C316.875 105.807 318.404 106.124 319.631 106.381C319.908 106.436 320.154 106.487 320.496 106.567C321.955 106.774 322.111 106.869 322.885 108.022C324.057 109.783 325.4 111.307 326.693 112.344C329.57 114.503 332.463 116.918 334.163 120.063C334.324 120.3 334.48 120.516 334.641 120.722C334.942 121.13 335.164 121.422 335.274 121.759C335.335 121.94 335.335 122.197 335.335 122.494C335.335 122.921 335.335 123.45 335.476 123.842C335.601 124.602 335.662 125.367 335.727 126.162C335.787 126.922 335.848 127.717 335.973 128.597C336.134 129.543 336.406 130.515 336.688 131.501C337.291 133.619 337.86 135.622 337.291 137.484C336.743 138.999 335.732 140.302 334.671 141.676C333.972 142.576 333.252 143.512 332.593 144.614C331.109 147.462 324.078 158.075 316.799 158.075ZM295.366 164.028C296.835 165.618 298.354 167.268 300.427 168.038C302.786 168.712 304.742 169.357 306.815 171.072L307.147 171.294C307.8 171.722 309.325 172.713 309.475 173.166C309.662 173.921 308.983 174.65 308.263 174.836C306.583 175.249 303.927 174.092 300.618 171.379C300.562 171.354 295.492 169.009 293.178 170.438C292.459 170.886 292.067 171.616 292.067 172.502C292.067 174.64 293.998 175.772 295.698 176.779C296.825 177.443 298.098 178.188 298.098 178.892C298.098 179.748 297.74 180.1 297.474 180.296C296.629 180.895 295.09 180.865 293.983 180.502C293.017 180.256 292.524 179.863 291.498 178.49C291.413 178.374 291.307 178.273 291.186 178.193C290.93 178.022 290.507 177.453 290.175 176.995C289.381 175.913 288.561 174.791 287.303 174.791C286.916 174.791 286.554 174.967 286.317 175.274C286.076 175.581 285.995 175.979 286.081 176.351C286.302 177.247 286.423 178.953 285.492 179.652C284.698 180.231 283.903 180.211 282.424 179.481C280.623 178.807 280.407 177.956 279.939 176.089C279.849 175.742 279.758 175.375 279.617 174.882C277.932 170.569 274.965 167.037 272.098 163.625C270.664 161.919 269.2 160.158 267.908 158.326C267.978 157.305 268.114 156.288 268.28 155.247C268.32 154.99 268.345 154.718 268.385 154.457C269.049 154.95 269.648 155.569 270.236 156.299C270.659 156.822 271.076 157.34 271.529 157.788L275.785 162.04C276.262 162.523 277.007 163.62 277.731 164.687C279.074 166.669 280.457 168.717 281.856 169.558C282.037 169.648 282.273 169.689 282.51 169.689C282.691 169.689 282.872 169.658 283.023 169.598C283.752 169.306 284.019 168.577 284.336 167.731C284.436 167.465 284.607 166.997 284.768 166.685C284.869 166.785 284.969 166.901 285.085 167.027C285.92 167.917 287.469 169.563 289.285 168.657C289.909 168.345 290.346 167.847 290.558 167.203C290.99 165.9 290.356 164.42 289.733 163.238C288.676 161.829 287.696 160.621 286.73 159.524C287.625 159.851 288.43 160.203 289.396 160.52C290.603 160.918 291.715 161.24 292.786 161.527C293.641 162.171 294.476 163.072 295.366 164.028ZM280.975 157.144C281.046 157.26 281.051 157.406 281.157 157.501C283.299 159.333 285.316 161.567 287.585 164.566C288.309 165.985 288.158 166.398 288.188 166.408C287.892 166.373 287.198 165.633 286.901 165.311C286.488 164.868 286.136 164.491 285.804 164.34C285.045 163.882 284.386 163.952 283.978 164.103C282.962 164.455 282.469 165.502 282.102 166.463C281.358 165.588 280.488 164.304 279.793 163.278C278.933 162.01 278.194 160.913 277.55 160.264L273.29 156.007C272.902 155.614 272.545 155.166 272.173 154.713C271.268 153.591 270.216 152.358 268.672 151.674C268.722 150.864 268.707 150.019 268.622 149.143C271.263 151.599 275.226 154.437 280.975 157.144ZM250.031 155.423C250.826 156.087 251.58 156.716 252.174 157.647C252.37 157.869 252.702 158.503 252.928 159.086C252.828 159.021 252.737 158.965 252.657 158.91C251.817 158.382 250.961 157.793 250.182 158.019C249.442 158.095 248.854 158.482 248.532 159.101C247.722 160.671 248.904 163.374 251.082 167.208C251.253 167.51 251.384 167.731 251.495 167.943C252.234 169.175 252.571 169.92 252.571 171.052C252.571 171.354 252.586 171.646 252.596 171.928C252.616 172.31 252.642 172.889 252.636 172.98C252.636 172.98 252.501 173.055 252.073 173.055C250.167 173.055 249.216 173.055 247.813 172.059L247.511 171.832C246.369 170.957 244.533 169.623 242.929 170.413C242.451 169.845 241.998 169.251 241.54 168.667C241.777 168.702 242.023 168.758 242.239 168.758C242.778 168.758 243.251 168.647 243.608 168.426C246.827 166.82 244.83 162.795 244.241 161.637C243.613 159.735 242.551 158.774 241.43 157.879C240.534 156.993 240.288 156.54 240.288 155.77C240.288 155.614 240.288 155.423 240.298 155.272C240.424 155.297 240.746 155.524 240.942 155.665C241.47 156.047 242.144 156.5 242.798 156.5C243.698 156.686 244.397 156.535 244.941 156.087C245.715 155.453 245.806 154.457 245.791 153.561C245.373 150.995 243.225 150.124 242.672 149.908C240.957 148.922 239.433 147.649 238.034 146.481C235.997 144.951 234.528 143.11 233.734 141.167C233.558 140.438 233.628 139.451 233.699 138.405C233.779 137.338 233.774 136.266 233.608 135.23C233.895 135.094 234.217 134.983 234.544 134.877C234.664 135.355 234.845 135.889 235.328 136.548C235.826 137.288 236.339 138.052 236.898 138.601C238.14 139.849 239.684 140.941 241.294 141.731C242.431 142.586 243.779 143.125 245.303 143.708C245.866 143.824 246.394 143.849 246.882 143.875C247.516 143.905 247.893 143.93 248.245 144.106C248.914 144.438 249.81 145.555 249.81 146.23C249.774 146.446 249.211 147.004 248.904 147.306C248.346 147.86 247.712 148.489 247.385 149.299C246.253 152.258 248.436 154.084 250.031 155.423ZM230.696 138.143C230.841 137.816 231.038 137.534 231.234 137.252C231.219 137.574 231.214 137.897 231.189 138.224C231.098 139.421 231.013 140.664 231.344 141.942C232.35 144.448 234.146 146.713 236.475 148.454C237.894 149.641 239.513 150.995 241.57 152.162C242.682 152.615 243.165 153.118 243.291 153.757C243.291 153.868 243.286 153.959 243.281 154.029C243.165 154.019 243.049 154.004 243.049 154.004C242.934 153.989 242.597 153.752 242.4 153.611C241.862 153.224 241.193 152.751 240.288 152.751C237.773 152.751 237.773 154.864 237.773 155.77C237.773 157.456 238.497 158.513 239.76 159.756C240.917 160.691 241.47 161.265 241.923 162.589C243.462 165.683 242.727 166.051 242.405 166.217C241.892 166.453 239.875 165.497 239.367 164.647C239.151 164.284 238.784 164.133 238.397 164.103C237.476 162.503 236.601 160.852 235.776 159.197C235.107 157.863 234.438 156.53 233.744 155.252C231.576 151.171 228.503 142.969 230.696 138.143ZM235.65 127.274C234.594 128.316 234.091 129.971 234.041 132.407C233.236 132.653 232.501 132.975 231.837 133.363C231.822 133.368 231.802 133.353 231.787 133.363C231.742 133.378 231.732 133.428 231.692 133.448C230.982 133.881 230.349 134.389 229.82 134.993C226.878 136.357 224.247 138.983 222.441 142.601C221.244 144.987 221.315 147.286 221.39 149.727C221.405 150.31 221.425 150.909 221.425 151.528C221.425 154.613 221.425 157.798 221.878 160.52C222.099 162.07 222.431 163.615 222.763 165.165C223.09 166.695 223.422 168.219 223.634 169.689C223.825 171.812 224.267 174.016 224.69 176.15C225.248 178.968 225.832 181.876 225.832 184.538C225.832 186.511 225.832 189.485 224.051 190.39C223.136 190.682 219.992 190.385 218.317 189.978L217.457 189.641C215.505 188.881 213.488 188.086 212.14 186.737C211.37 185.967 210.772 184.961 210.133 183.904C209.444 182.752 208.73 181.564 207.739 180.578L206.26 179.104C201.994 174.867 197.965 170.871 195.727 165.663C195.008 163.504 194.052 160.334 193.524 157.3C192.669 154.739 191.789 152.092 191.341 149.883C190.204 145.706 189.626 140.78 189.626 135.245C189.626 133.619 189.575 131.994 189.525 130.369C189.429 127.229 189.329 123.988 189.621 120.828C189.917 117.306 191.758 113.839 193.544 110.487C194.294 109.078 195.038 107.674 195.652 106.316L196.527 104.549C198.73 100.096 200.812 95.8894 203.866 92.4525C205.621 90.2535 205.546 88.0596 205.485 86.1223C205.475 85.77 205.46 85.4178 205.46 85.0655C205.46 82.5093 205.46 81.4526 206.486 79.7165L207.754 78.2019C214.439 70.2211 221.345 61.9636 231.043 60.7962C231.757 60.7962 232.602 60.7509 233.492 60.7056C235.298 60.605 237.355 60.4993 238.563 60.7308C239.589 61.0679 239.709 61.9032 239.533 64.2381C239.498 64.7463 239.463 65.2395 239.478 65.5162C239.096 68.2184 238.351 70.679 237.003 73.8492C235.65 76.0935 234.307 78.8007 232.979 81.4626L232.411 82.7005C230.263 87.3752 227.587 93.1922 227.587 98.7123C227.587 99.2206 227.572 99.7439 227.552 100.277C227.476 102.597 227.396 105.229 228.548 107.538C228.98 108.625 229.715 109.541 230.424 110.432C231.229 111.438 231.988 112.389 231.988 113.24C231.988 113.934 232.552 114.498 233.246 114.498C233.94 114.498 234.503 113.934 234.503 113.24C234.503 111.509 233.382 110.105 232.391 108.862C231.767 108.082 231.184 107.347 230.841 106.512C229.926 104.675 229.996 102.481 230.067 100.358C230.082 99.7942 230.102 99.2457 230.102 98.7123C230.102 93.7457 232.652 88.2055 234.7 83.7522L235.248 82.5445C236.274 80.4763 237.345 78.3981 238.432 76.4508C239.076 79.5052 240.192 82.4338 241.319 85.2869C241.857 86.6406 242.4 87.9992 242.903 89.4333C244.946 94.3848 245.423 99.6231 245.459 105.853C245.147 106.019 244.84 106.19 244.573 106.351C243.693 106.859 242.934 107.362 242.174 107.871C242.104 107.916 241.862 108.072 241.807 108.127C241.259 108.404 240.65 108.776 239.77 109.984C239.357 110.543 239.478 111.333 240.041 111.745C240.59 112.158 241.389 112.037 241.797 111.473C242.4 110.653 242.682 110.512 242.949 110.377C243.17 110.266 243.467 110.115 243.577 109.969C244.297 109.491 245.006 109.013 245.856 108.525C246.138 108.354 246.445 108.188 246.761 108.016C246.932 107.921 247.124 107.805 247.305 107.704C247.425 107.634 247.561 107.609 247.657 107.503C247.742 107.453 247.808 107.418 247.898 107.362C248.361 107.035 248.758 106.703 249.156 106.376C249.498 106.094 249.84 105.807 250.313 105.465C251.681 104.318 253.366 103.357 255.086 102.371C255.438 102.149 255.78 101.898 256.122 101.646C256.681 101.228 257.214 100.836 257.868 100.609C258.386 100.383 258.899 100.212 259.412 100.041C260.005 99.8395 260.599 99.6432 261.223 99.3916C262.214 99.1451 263.34 98.8683 264.105 98.345C264.814 97.9575 265.508 97.5348 266.207 97.1172C267.918 96.0906 269.527 95.1245 271.197 94.6465C273.244 94.1131 276.227 94.103 278.008 95.1497C279.135 95.7585 280.402 97.1574 280.925 98.4205C281.066 98.7073 281.066 98.9438 281.046 99.4621L281.036 99.9452C281.036 101.651 281.841 103.05 282.62 104.404C282.796 104.71 282.972 105.017 283.174 105.39C284.874 108.208 285.754 110.608 285.945 112.847C285.945 114.105 285.945 115.192 285.558 116.163C285.12 117.2 284.517 118.156 283.873 119.177C283.511 119.751 283.138 120.335 282.786 120.964C281.73 122.851 280.543 125.065 279.773 127.37C279.26 128.623 279.064 129.906 278.878 131.149C278.727 132.175 278.576 133.141 278.264 134.077C278.169 134.359 278.063 134.651 277.947 134.958C277.756 135.481 277.55 136.03 277.475 136.367C277.374 136.563 277.304 136.759 277.233 137.066C276.957 137.217 276.368 137.081 275.81 136.709C274.638 136.009 274.462 134.585 274.331 132.512C274.331 131.199 273.979 129.881 273.345 128.935C272.329 127.571 271.403 126.65 270.498 126.076C267.903 124.23 264.185 124.496 262.998 124.637C262.073 124.823 261.198 125.372 260.765 125.966C260.398 126.338 260.005 126.469 258.773 126.227C257.717 126.076 256.877 125.835 256.434 125.543C256.027 125.286 255.695 124.833 255.338 124.35C255.051 123.963 254.769 123.586 254.412 123.233C251.872 120.863 247.808 120.999 246.163 121.18C244.981 121.311 243.728 121.789 242.325 122.68C241.525 123.319 241.052 124.099 240.544 124.994C240.343 125.518 240.328 125.523 240.122 125.649C240.051 125.689 240.046 125.774 239.991 125.83C238.236 125.895 236.747 126.187 235.65 127.274ZM193.257 178.002C194.409 179.013 195.511 180.07 196.617 181.126C198.871 183.285 201.205 185.519 203.981 187.371C205.4 188.257 208.101 189.53 211.079 190.647C210.596 192.972 208.911 195.89 207.08 197.42C206.682 197.732 206.335 197.903 206.149 197.858C205.661 197.767 204.982 196.63 204.479 195.795C203.715 194.517 202.92 193.188 201.793 192.725C199.389 191.226 196.949 192.625 194.988 193.747C193.982 194.325 192.935 194.919 192.261 195.015C191.97 195.015 191.648 195.03 191.316 195.045C190.702 195.07 189.289 195.136 188.921 194.708C188.73 194.431 188.574 193.319 188.489 192.715C188.388 192.016 188.288 191.356 188.197 191.17C188.056 189.927 188.031 188.684 188.006 187.442C187.961 185.499 187.915 183.496 187.407 181.262C186.784 179.702 185.682 177.121 182.393 177.674C181.94 177.785 181.447 177.966 180.934 178.153C179.923 178.525 178.877 178.912 178.087 178.751C177.876 178.686 177.564 178.535 177.302 177.976C176.301 175.843 177.302 170.786 178.172 168.763C179.44 165.905 181.688 162.699 184.068 161.144C185.597 167.439 187.865 173.805 193.257 178.002ZM201.139 73.7838C201.129 73.2705 201.129 72.7623 201.119 72.244C201.014 67.4837 200.908 62.5675 202.452 57.9229C203.111 55.6183 203.604 55.0446 204.902 54.8433C205.661 54.8433 206.376 54.8433 206.869 55.2962C206.964 55.3566 207.125 55.6183 207.231 55.7944C207.512 56.2523 207.985 57.0222 208.926 57.0373C208.936 57.0373 208.946 57.0373 208.956 57.0373C209.866 57.0373 210.465 56.3177 210.938 55.6132C212.195 53.7363 212.019 50.7674 211.883 48.3772C211.848 47.7281 211.808 47.1192 211.808 46.5959C211.808 43.0785 211.808 40.0392 213.931 37.3119C214.806 35.9985 215.988 35.0122 216.697 35.0122C216.773 34.9669 217.084 35.0022 217.582 35.7721C218.835 37.2313 219.811 38.9825 220.847 40.8292C221.37 41.7652 221.898 42.7011 222.497 43.6723C223.457 45.2725 225.469 48.5936 228.734 46.7217C230.575 45.8059 232.295 43.4207 233.96 39.5008C235.011 37.3924 235.796 36.8137 235.912 36.7684C235.917 36.7684 236.002 36.8137 236.183 37.0653C236.651 37.649 236.782 38.4541 236.928 39.3901C237.104 40.4971 237.305 41.7501 238.11 42.9628C238.884 44.1352 239.845 44.4623 240.514 44.5277C241.807 44.6737 243.215 43.9692 244.518 42.6458C244.83 42.4344 245.076 42.1979 245.288 41.9815C245.323 42.2633 245.283 42.7514 245.257 43.0433C245.232 43.3503 245.212 43.6522 245.212 43.9289C245.212 44.9152 244.966 46.1128 244.699 47.3759C244.171 49.9472 243.643 52.8255 244.85 55.3365C243.351 56.5442 241.918 57.8072 240.866 59.2765C240.73 59.1457 240.575 59.0199 240.409 58.8991C240.409 58.4764 240.665 57.9582 240.912 57.46C241.223 56.826 241.545 56.1668 241.545 55.412C241.545 55.2006 241.56 54.9289 241.575 54.632C241.666 52.8809 241.752 51.0744 240.484 50.4705C240.031 50.2491 239.307 50.1586 238.422 50.8882C237.954 51.1801 237.697 51.6178 237.501 51.9399C237.426 52.0657 237.305 52.272 237.159 52.3223C236.832 52.3223 236.732 52.3223 236.405 51.3813C236.329 50.9385 236.314 50.4303 236.299 49.9371C236.249 48.5835 236.193 47.1897 234.996 46.7619C233.794 46.3342 232.728 47.5168 232.164 48.1659C231.772 48.6892 231.405 49.2578 231.033 49.8264C229.398 52.3525 228.342 53.7514 225.887 53.1526C225.319 53.0167 224.549 52.1713 223.875 51.4216C222.723 50.1535 221.41 48.6993 219.428 49.0716C216.441 50.1938 217.074 53.2885 217.411 54.949C217.512 55.4321 217.613 55.8799 217.613 56.2322C217.613 56.5089 217.587 56.5844 217.381 56.7102C217.195 56.7958 216.491 56.8863 215.601 56.8964C212.477 57.3493 212.562 60.3232 212.613 62.0995L212.628 62.8895C212.628 63.1864 212.769 63.4279 212.94 63.6443C208.342 66.7742 204.474 70.5382 201.667 73.2655C201.466 73.4668 201.32 73.6127 201.139 73.7838ZM215.123 62.2655L215.118 62.0492C215.052 59.7445 215.284 59.503 215.772 59.4225C217.728 59.4225 218.488 59.04 218.81 58.7935C220.118 58.0437 220.118 56.7555 220.118 56.2573C220.118 55.7642 220.002 55.1402 219.866 54.471C219.433 52.3374 219.519 51.7436 220.072 51.5122C220.48 51.4568 221.43 52.4984 222.004 53.1325C222.965 54.1992 223.971 55.3013 225.283 55.6183C229.614 56.6901 231.566 53.6508 233.14 51.2153C233.362 50.8781 233.578 50.536 233.789 50.229C233.809 50.7674 233.844 51.3461 233.97 52.0103C234.302 53.0016 234.921 54.8534 237.159 54.8534C238.085 54.8534 238.683 54.471 239.086 54.0483C239.081 54.2294 239.071 54.3905 239.066 54.5263C239.045 54.8735 239.03 55.1906 239.03 55.4321C239.03 55.6032 238.814 56.046 238.653 56.368C238.402 56.8813 238.155 57.5204 238.024 58.2148C236.551 58.089 234.906 58.1141 233.362 58.1947C233.216 58.1997 233.08 58.2047 232.934 58.2098C226.491 57.0071 220.404 59.0904 215.123 62.2655ZM281.911 75.1626C282.233 75.8117 282.786 76.2092 283.455 76.2797C285.165 76.4558 286.951 74.3725 289.295 71.4036C289.738 70.8451 290.095 70.3822 290.361 70.1155L291.589 68.7065C294.018 65.8986 296.77 62.7134 300.261 61.5359C301.121 61.1132 301.629 61.0679 301.805 61.1585C301.986 61.2541 302.237 61.712 302.353 62.6983C302.615 64.7413 301.463 66.6836 300.255 68.7367L299.682 69.723C299.576 69.9142 299.516 70.0853 299.516 70.3067C299.501 70.4425 299.35 70.8451 299.249 71.1118C298.887 72.083 298.475 73.185 298.867 73.9348C299.451 75.706 301.166 75.5903 301.976 75.5349C302.162 75.5249 302.348 75.5098 302.7 75.4997L303.515 75.394C306.04 75.077 308.223 74.7952 310.698 74.7952C311.327 74.7952 311.628 74.8556 311.719 74.8304C311.714 75.1726 311.487 75.9677 311.347 76.5212L311.196 76.8131C310.653 77.8547 309.732 79.5907 310.195 80.9343C310.733 83.093 312.307 83.0175 313.253 82.9722C313.444 82.9622 313.66 82.9521 313.897 82.9521C315.904 82.9521 317.357 82.9521 319.007 84.2403C320.29 84.8794 322.659 87.2545 322.297 88.3263C322.116 88.7842 321.034 89.4987 316.915 90.3089L316.533 90.3844C315.456 90.5655 314.38 90.646 313.263 90.7366C312.172 90.8272 311.04 90.9178 309.893 91.0838C305.004 91.4864 300.618 95.0289 298.143 98.2041C298.143 98.2041 298.143 98.2091 298.138 98.2142C297.358 98.6117 296.634 99.0746 296.025 99.5174C295.658 99.7841 295.311 100.041 294.984 100.237C294.647 100.438 294.204 100.433 293.495 100.393C292.781 100.358 291.981 100.313 290.98 100.735C290.316 101.133 288.435 102.013 286.921 102.723C286.242 103.04 285.613 103.332 285.08 103.588C284.994 103.437 284.914 103.281 284.823 103.135C284.471 102.517 284.154 101.923 283.918 101.334C284.406 101.138 284.909 100.967 285.372 100.735C286.041 100.403 286.669 100.086 287.509 99.8445C287.932 99.6332 288.646 99.5376 289.335 99.442C290.532 99.2809 291.896 99.0947 292.66 98.3047C293.566 97.6304 293.832 96.7549 294.013 96.1712C294.219 95.5069 294.24 95.4516 295.155 95.3006C295.915 95.049 297.343 95.4013 298.767 94.9182C302.157 93.5646 303.812 91.5618 303.434 89.2471C303.324 88.6785 303.113 87.9791 302.489 87.5715C302.237 87.4104 301.986 87.335 301.754 87.3098C301.759 87.2998 301.764 87.2897 301.77 87.2796C301.895 86.8771 302.046 86.4242 302.006 86.2531C302.333 84.9498 302.529 83.5157 301.508 82.7508C300.371 81.8853 298.943 82.7257 297.313 83.6918C296.322 84.2705 294.717 85.2568 293.958 85.0756C293.495 84.9699 293.716 82.8615 293.822 81.84C294.013 79.9581 294.214 78.0157 293.218 76.798C292.766 76.2394 292.112 75.9073 291.458 75.8469C289.029 75.3437 287.887 77.8446 287.223 79.3291C287.112 79.5907 287.001 79.8373 286.931 79.9732C285.885 81.7293 284.894 83.3849 283.581 84.6982C283.098 85.1813 282.761 85.448 282.545 85.5989C282.469 85.3473 282.399 85.0253 282.344 84.7787C282.087 83.6213 281.77 82.1772 280.553 81.5431C279.814 81.1607 278.948 81.1708 277.973 81.5784C276.016 82.3684 275.111 84.3309 274.452 85.77L274.094 86.5298C273.913 86.9827 273.702 87.4105 273.501 87.8331C272.927 89.0207 272.394 90.2888 272.299 91.894C271.695 91.9694 271.097 92.0651 270.563 92.2059C268.551 92.7796 266.715 93.8816 264.945 94.9434C264.321 95.3208 263.677 95.6981 262.963 96.1007C263.159 95.5472 263.411 94.9484 263.687 94.3496C263.919 93.8363 264.16 93.318 264.321 92.8953C265 91.5417 265.538 90.1881 266.107 88.7439C266.439 87.8935 266.791 87.0129 267.173 86.1223C269.583 80.9494 273.355 75.7916 277.465 72.0276C279.371 70.4979 280.895 69.728 282.459 69.4613C282.57 69.4512 282.666 69.4462 282.746 69.4462C282.671 69.8186 282.464 70.3973 282.319 70.8149C281.8 72.2239 281.232 73.814 281.911 75.1626ZM293.364 87.5262C295.049 87.9438 296.911 86.8368 298.57 85.8606C298.887 85.6694 299.295 85.4379 299.647 85.2416C299.617 85.4329 299.571 85.6593 299.511 85.9411C299.506 86.0367 299.415 86.3135 299.36 86.4996C299.139 87.1739 298.837 88.0998 299.285 88.9955C299.345 89.1163 299.426 89.227 299.521 89.3226C300.004 89.8057 300.603 89.9063 300.96 89.9013C300.94 91.2297 298.575 92.2814 297.886 92.5632C297.132 92.8198 295.462 92.528 294.567 92.8702C292.298 93.1922 291.865 94.5961 291.604 95.4365C291.453 95.9397 291.378 96.1259 291.015 96.4177C290.709 96.7247 289.758 96.8505 288.993 96.9562C288.098 97.0769 287.172 97.2027 286.639 97.5046C285.789 97.716 285.005 98.1085 284.24 98.4859C283.999 98.6066 283.792 98.662 283.561 98.7727C283.541 98.3299 283.47 97.8619 283.224 97.3688C282.505 95.6478 280.86 93.8262 279.26 92.9607C277.993 92.216 276.413 91.8688 274.819 91.7933C274.934 90.792 275.287 89.9063 275.749 88.9452C275.976 88.4772 276.207 87.9992 276.368 87.5815L276.715 86.8418C277.253 85.6744 277.867 84.346 278.913 83.9233C279.21 83.8025 279.366 83.7924 279.366 83.7824C279.572 83.9535 279.773 84.8542 279.879 85.3373C280.13 86.4594 280.437 87.8533 281.71 88.2256C283.003 88.6232 284.28 87.5664 285.352 86.4946C286.886 84.9599 288.002 83.088 289.129 81.1959C289.255 80.9443 289.381 80.6625 289.511 80.3606C289.894 79.5102 290.517 78.2723 291.262 78.3931C291.594 78.8057 291.413 80.5468 291.312 81.5884C291.066 83.8478 290.749 86.9475 293.364 87.5262ZM293.983 130.228C295.07 131.053 296.548 131.219 297.972 131.38C298.827 131.481 299.707 131.576 300.2 131.768C300.577 131.959 301.06 132.472 301.216 132.945C300.824 133.01 300.301 133.116 299.949 133.383C297.232 134.455 298.037 137.695 298.425 139.255C298.44 139.321 298.515 139.597 298.54 139.663C300.054 143.17 300.643 145.993 300.527 146.461C300.532 146.466 300.039 146.511 298.716 145.631C298.027 145.082 297.373 144.388 296.689 143.658C295.688 142.591 294.652 141.489 293.168 140.518C292.358 140.116 291.151 139.643 290.095 140.287C288.963 140.986 288.873 142.456 288.873 143.779C288.873 145.002 289.154 146.033 289.451 147.12C289.627 147.784 289.823 148.489 289.944 149.098C289.944 150.044 289.894 150.336 289.572 150.461C289.23 150.633 289.169 150.668 288.249 149.707L287.831 149.274C286.187 147.633 284.879 145.676 283.319 143.351C282.55 142.385 281.393 141.348 280.281 140.337C279.773 139.884 279.265 139.421 278.798 138.973C279.27 138.576 279.532 138.103 279.643 137.776L279.783 137.418C280.055 137.645 280.332 137.886 280.593 138.113C282.027 139.371 283.39 140.569 284.693 140.569C284.894 140.569 285.1 140.538 285.301 140.478C285.804 140.317 286.463 139.894 286.74 138.772C287.027 137.645 286.815 136.462 286.624 135.416C286.524 134.872 286.423 134.344 286.423 133.856C286.423 133.599 286.428 133.408 286.433 133.267C286.82 133.227 287.354 133.151 287.962 132.945C290.12 132.402 290.04 130.827 289.989 129.881C289.979 129.684 289.969 129.468 289.969 129.236C289.969 128.834 290.236 128.195 290.472 127.631C290.885 126.64 291.312 125.608 290.98 124.587C290.11 122.021 286.906 122.67 284.783 123.097C284.678 123.118 284.612 123.118 284.507 123.143C284.673 122.836 284.839 122.494 285.005 122.202C285.211 121.844 285.422 121.512 285.633 121.17C285.729 121.19 285.789 121.276 285.89 121.276C288.113 121.276 290.03 121.276 292.258 120.355C293.359 119.62 294.37 118.795 295.381 117.965C296.327 117.195 297.263 116.42 298.208 115.786C298.626 115.544 298.907 115.429 299.078 115.368C299.124 115.6 299.169 116.027 299.169 116.822C299.169 118.805 297.796 120.763 296.584 122.489L295.874 123.51C295.683 123.767 295.437 124.053 295.175 124.35C293.938 125.769 291.886 128.155 293.983 130.228ZM282.153 128.23C282.424 127.415 282.786 126.635 283.138 125.855C283.752 125.845 284.486 125.704 285.271 125.543C287.359 125.12 288.485 125.055 288.571 125.332C288.596 125.553 288.309 126.237 288.138 126.65C287.816 127.43 287.444 128.316 287.444 129.221C287.444 129.503 287.459 129.76 287.469 129.996C287.479 130.167 287.489 130.389 287.555 130.414C287.449 130.449 287.243 130.52 287.243 130.52C286.72 130.696 286.342 130.731 286.011 130.766C284.049 130.967 283.898 132.165 283.898 133.841C283.898 134.465 284.014 135.149 284.139 135.848C284.265 136.533 284.396 137.237 284.325 137.871C283.732 137.519 282.796 136.699 282.243 136.211C281.67 135.708 281.147 135.275 280.654 134.913C280.659 134.897 280.669 134.877 280.674 134.862C281.056 133.725 281.222 132.598 281.393 131.511C281.564 130.369 281.725 129.282 282.153 128.23ZM271.916 133.514C271.625 133.327 271.343 133.126 271.046 132.95C269.799 132.185 268.627 131.466 267.797 130.474C266.102 128.773 264.583 128.124 262.883 127.47C263.059 127.319 263.255 127.153 263.411 127.118C265.091 126.922 267.566 127.063 269.115 128.16C269.804 128.592 270.533 129.337 271.313 130.379C271.63 130.857 271.836 131.692 271.841 132.638C271.861 132.905 271.891 133.217 271.916 133.514ZM188.454 29.5374C189.59 26.4176 191.2 24.3595 193.247 21.7479L193.936 20.8622C198.971 14.4817 205.873 9.76668 213.347 7.58782C217.97 6.26441 222.356 7.05444 226.999 7.88975C227.139 7.91491 227.3 7.93 227.441 7.95516C223.664 9.98809 219.655 11.9003 215.751 13.742C212.236 15.4076 208.599 17.1285 205.012 19.0004C195.712 24.4551 188.6 32.934 183.826 44.2409C184.239 42.4898 184.666 40.8443 185.134 39.5058C186.105 36.2501 187.106 32.8988 188.454 29.5374ZM180.843 69.2248C180.843 65.7225 181.537 62.8392 182.337 59.4979L182.785 57.5858C183.439 55.6183 183.937 53.4998 184.42 51.4568C184.943 49.2176 185.441 47.0991 186.095 45.3077C190.627 34.4939 197.422 26.3723 206.235 21.1994C209.721 19.3778 213.337 17.6669 216.833 16.0164C220.988 14.054 225.283 12.021 229.287 9.8321C238.477 5.0517 248.623 18.5928 249.744 20.1477C254.241 26.3773 254.558 32.929 254.729 36.4514C254.769 37.2011 254.799 37.8251 254.845 38.1421C254.855 39.0781 254.97 43.8283 256.55 45.7103C256.59 45.7606 256.66 45.7505 256.706 45.7908C255.981 46.3342 255.232 46.8525 254.457 47.3909C252.531 48.7194 250.539 50.0931 248.874 51.9499C248.296 52.5286 247.566 53.0922 246.882 53.6508C246.374 51.9751 246.756 49.917 247.174 47.8891C247.461 46.4953 247.732 45.1769 247.732 43.934C247.732 43.7176 247.752 43.4811 247.772 43.2446C247.848 42.2835 247.949 40.9601 247.159 40.1851C246.968 39.9335 246.389 39.1687 245.464 39.1183C244.498 39.0982 244.03 39.6618 243.628 40.0895C243.452 40.2757 243.286 40.4518 242.929 40.7185C241.953 41.6947 241.213 42.0369 240.826 42.0369C240.715 42.0319 240.549 42.0923 240.207 41.579C239.704 40.8242 239.564 39.9335 239.418 38.9976C239.237 37.8704 239.035 36.5973 238.19 35.5507C237.375 34.4084 236.49 34.2172 235.786 34.2776C234.368 34.3883 233.035 35.7368 231.681 38.4541C229.805 42.8672 228.332 44.1202 227.557 44.5126C226.662 45.0259 226.098 44.7844 224.594 42.2784C224.056 41.4129 223.553 40.5122 223.045 39.6115C221.994 37.7345 220.907 35.7922 219.604 34.2927C218.694 32.8334 217.552 32.5164 216.747 32.5063C216.732 32.5063 216.717 32.5063 216.697 32.5063C214.303 32.5063 212.376 35.1179 211.893 35.8475C209.293 39.1838 209.293 42.7867 209.293 46.606C209.293 47.1695 209.328 47.8287 209.368 48.5332C209.469 50.2944 209.605 52.6544 209.006 53.9326C208.835 53.7011 208.649 53.4897 208.448 53.369C207.417 52.3374 206.028 52.3575 204.721 52.3525C201.557 52.8054 200.697 54.9239 200.048 57.1883C198.383 62.1951 198.494 67.3378 198.604 72.3094C198.629 73.5121 198.655 74.7047 198.655 75.8872C198.655 75.9476 198.71 75.9828 198.72 76.0381C198.675 76.0734 198.614 76.1337 198.574 76.169C193.489 80.3304 190.33 85.3674 187.201 90.7618C186.809 91.738 186.205 92.6437 185.566 93.5998C185.426 93.8112 185.29 94.0326 185.149 94.2489C182.227 87.2897 180.843 79.5102 180.843 69.2248ZM182.126 121.799C182.569 119.132 182.906 116.581 183.238 114.025C183.565 111.519 183.891 109.013 184.329 106.371C184.435 105.611 184.52 104.846 184.601 104.087C184.842 101.857 185.068 99.7489 186.014 97.8569C186.406 96.8756 187.015 95.9598 187.659 94.9937C188.338 93.9671 189.042 92.9104 189.45 91.8587C192.377 86.8368 195.4 82.0061 200.158 78.1113C200.999 77.427 202.095 76.3652 203.408 75.0871C207.2 71.3986 213.071 65.7125 219.886 62.5976C214.474 66.2609 209.977 71.6251 205.827 76.5816L204.449 78.2522C202.95 80.7531 202.95 82.3734 202.95 85.0655C202.95 85.448 202.96 85.8254 202.975 86.2078C203.036 87.9287 203.081 89.4081 201.949 90.8322C198.71 94.4754 196.557 98.8281 194.278 103.432L193.388 105.229C192.769 106.582 192.05 107.936 191.326 109.3C189.424 112.872 187.453 116.576 187.121 120.607C186.819 123.908 186.92 127.229 187.015 130.444C187.065 132.044 187.116 133.644 187.116 135.245C187.116 141.001 187.724 146.149 188.896 150.461C189.354 152.741 190.259 155.463 191.089 157.904C191.592 160.913 192.588 164.219 193.373 166.559C195.843 172.315 200.038 176.482 204.484 180.89L205.958 182.359C206.733 183.129 207.336 184.141 207.975 185.202C208.388 185.892 208.83 186.571 209.318 187.235C207.703 186.541 206.28 185.846 205.349 185.263C202.794 183.552 200.636 181.494 198.358 179.31C197.226 178.228 196.099 177.146 194.862 176.064C188.74 171.304 187.06 163.414 185.436 155.79C185.074 154.074 184.711 152.394 184.299 150.743C181.291 140.221 181.462 129.146 182.126 121.799ZM128.345 101.591C125.79 99.9904 123.225 98.6117 120.71 97.565C120.775 93.1167 123.134 88.8395 125.483 84.6932C126.605 82.7156 127.767 80.6776 128.617 78.7051C128.954 78.0358 129.301 77.3817 129.643 76.7426C129.668 76.6923 129.693 76.642 129.723 76.5967C134.23 82.9924 132.435 93.3985 128.345 101.591ZM92.1493 40.9802C93.8193 39.8329 96.1381 39.9838 99.0052 41.3274C99.0656 42.2281 99.136 43.1188 99.136 44.0447L99.1309 67.5139C99.1008 76.3149 99.0857 85.3322 101.581 93.7508C99.6339 91.4612 97.793 88.4974 96.3041 86.087C95.6452 85.0152 95.0315 84.0239 94.4732 83.1886C91.3596 78.5189 89.0106 71.8163 88.3265 65.6974C87.8084 60.8767 86.5509 44.8297 92.1493 40.9802ZM73.1409 55.2459L74.3733 54.5414C76.6016 53.1727 79.4838 52.8557 81.697 53.7413C83.5078 54.4659 84.7552 55.9453 85.3286 58.0135C85.3789 60.9119 85.5801 63.6896 85.8266 65.9792C86.5509 72.4755 89.0609 79.6058 92.3807 84.5925C92.9239 85.4077 93.5225 86.3739 94.1663 87.4205C96.7165 91.5417 99.8704 96.5989 103.442 98.7727C103.899 99.7992 104.397 100.816 104.956 101.817C104.88 102.27 104.523 103.025 103.97 103.976C95.0969 100.096 88.1857 91.5971 83.6989 85.4278C82.4062 83.878 81.1638 82.2728 79.9163 80.6575C77.9496 78.1214 75.9175 75.4997 73.5534 72.9284C72.8995 72.3396 72.1802 71.6603 71.4156 70.9357C69.0717 68.7166 66.3102 66.1251 63.6242 64.4243C63.6946 60.6402 69.3684 57.3996 73.1409 55.2459ZM34.8626 88.0093C35.2147 83.7623 36.3163 80.4562 38.2931 77.6282C41.3715 73.5221 45.6721 71.303 49.6257 69.5972C50.345 69.1695 51.0794 68.6612 51.8288 68.1429C54.4243 66.3465 57.0952 64.4947 59.9422 65.3653C62.8948 66.3465 66.6573 69.9091 69.6853 72.7673C70.465 73.502 71.1994 74.1964 71.7828 74.7147C73.991 77.125 75.9929 79.7064 77.9245 82.2023C79.192 83.8428 80.4546 85.4681 81.7171 86.9777C86.2743 93.2425 93.3716 101.938 102.637 106.124C102.325 106.602 102.003 107.081 101.666 107.584C98.2356 108.947 94.946 110.618 91.762 112.243C83.7442 116.344 76.169 120.224 66.8635 119.092C53.8609 117.351 44.1983 108.952 34.9582 100.534C35.3908 98.3249 35.2198 95.7736 35.0286 93.2828C34.8727 91.3706 34.7319 89.5692 34.8626 88.0093ZM27.3478 117.2C28.2633 117.285 29.1133 117.668 30.059 118.101C30.6525 118.367 31.2461 118.639 31.8698 118.845H31.8748C32.6595 121.719 33.6705 124.768 34.9029 127.973C34.7922 127.868 34.6916 127.767 34.5759 127.661C30.9241 124.325 27.1567 120.878 27.3478 117.2ZM68.2568 152.837C57.3316 153.752 44.4448 143.21 39.7719 133.192C36.7992 126.504 34.6916 120.4 33.4945 115.031C32.7953 112.047 32.6696 109.093 32.5337 105.968C32.4734 104.499 32.408 103.005 32.2772 101.495C42.1008 110.462 52.2866 119.676 66.5416 121.578C76.6318 122.826 84.9011 118.569 92.9088 114.473C94.8554 113.476 96.8523 112.49 98.8744 111.544C98.4016 112.203 97.9439 112.832 97.5465 113.381C95.8564 115.71 94.3927 117.728 93.7338 118.865C91.3797 122.73 88.3366 126.479 85.394 130.107C83.5128 132.422 81.5712 134.817 79.8409 137.202C77.6931 139.995 75.6911 142.898 73.7546 145.706C72.0897 148.117 70.3744 150.557 68.5838 152.942C68.463 152.912 68.3725 152.826 68.2568 152.837ZM117.651 127.465C117.973 124.079 117.948 121.225 117.566 118.548C117.511 118.005 117.42 117.376 117.324 116.707C117.013 114.583 116.605 111.79 117.279 110.014C119.93 111.141 122.365 112.555 124.668 114.095C124.12 118.976 121.761 124.763 117.651 127.465ZM145.623 134.53C140.216 122.655 129.054 111.952 117.194 107.257C116.671 107.045 116.077 107.206 115.74 107.654C113.829 110.115 114.412 114.135 114.835 117.064C114.93 117.693 115.016 118.282 115.071 118.845C115.534 122.121 115.448 125.634 114.789 130.233C114.357 133.338 114.08 136.563 113.819 139.683C112.888 150.592 111.932 161.874 103.97 170.051C95.4943 178.53 76.6368 181.655 66.6875 176.301C59.5499 171.827 58.4533 169.714 58.3125 169.019C58.0006 167.46 62.1554 163.716 63.931 162.116C64.5648 161.547 65.1181 161.044 65.5456 160.611C69.4137 156.394 72.6631 151.684 75.8068 147.13C77.7283 144.348 79.7101 141.469 81.8428 138.702C83.553 136.347 85.4795 133.982 87.3356 131.687C90.3335 127.999 93.432 124.179 95.8866 120.149C96.4952 119.102 97.9237 117.134 99.5736 114.855C104.141 108.56 107.179 104.202 107.456 101.963C107.461 101.948 107.456 101.938 107.461 101.923C107.471 101.827 107.506 101.711 107.506 101.621C107.506 101.505 107.41 101.425 107.38 101.319C107.355 101.213 107.395 101.097 107.34 100.997C106.696 99.8797 106.153 98.7324 105.645 97.5701C105.645 97.5701 105.645 97.565 105.64 97.56C101.586 88.276 101.601 77.749 101.636 67.524L101.641 44.0447C101.641 38.3988 100.519 33.3869 99.3372 28.0832C98.97 26.4427 98.6028 24.7973 98.2658 23.1115C97.8433 21.0082 97.4409 19.0256 98.0445 18.2909C98.3966 17.8581 99.302 17.6317 100.665 17.6317C103.311 17.6317 105.066 18.623 107.295 19.886C108.024 20.2987 108.778 20.7264 109.659 21.1591C115.951 23.9318 119.653 28.994 123.592 36.2602C127.068 42.6307 129.356 49.9875 129.869 56.4284C130.121 59.9559 130.433 64.3438 130.146 67.992C129.945 70.8401 128.778 73.024 127.42 75.5551C127.068 76.2142 126.71 76.8835 126.333 77.6383C125.503 79.5454 124.432 81.4425 123.29 83.4503C120.649 88.1049 117.923 92.9155 118.129 98.3198C118.149 98.7979 118.451 99.1149 118.854 99.3111C118.964 99.4118 119.025 99.5577 119.17 99.6181C131.147 104.363 144.844 116.903 149.703 127.576C153.742 136.447 162.992 141.016 166.291 142.415C165.98 143.11 165.658 143.804 165.351 144.488L164.114 147.251C163.756 148.041 163.455 148.891 163.113 149.707C159.742 148.106 149.325 142.652 145.623 134.53ZM2.89196 267.471C2.96741 266.419 3.15855 265.367 3.34466 264.341C3.5358 263.304 3.71688 262.288 3.79233 261.377C4.12431 258.871 4.59713 256.984 5.39187 254.981L5.50756 254.629C5.90493 253.421 6.31739 252.173 7.09704 250.986C7.49944 250.266 8.07286 249.617 8.68149 248.928C9.09395 248.465 9.49635 248.002 9.81827 247.569C11.2065 245.903 12.7256 244.645 14.7879 243.463L15.8593 242.809C16.7848 242.245 17.7455 241.661 18.7264 240.917C20.6831 239.105 22.7102 237.626 25.0491 236.302C26.5229 235.573 27.9967 234.979 29.4906 234.38C30.4916 233.952 31.3517 233.66 32.4482 233.348C33.072 233.112 33.7007 232.84 34.3244 232.569C34.9029 232.312 35.4813 232.06 36.0547 231.844C38.952 230.757 42.8201 229.514 47.0453 229.514H54.2633C56.0591 229.514 57.9151 229.514 59.4191 230.586C60.1686 230.958 60.8828 231.582 61.4009 232.352C61.6373 232.654 61.6927 232.931 61.7077 233.379C61.2802 233.429 60.8677 233.419 60.41 233.56C60.1183 233.676 59.8265 233.766 59.5449 233.857C59.062 234.008 58.6042 234.159 58.2874 234.325C57.5982 234.622 57.055 235.034 56.5268 235.432C56.1295 235.739 55.712 236.056 55.2995 236.267C54.5802 236.559 53.8257 236.775 53.0712 236.992C52.2463 237.228 51.4214 237.47 50.677 237.762L50.3299 237.882C48.7857 238.436 47.4477 238.919 45.9488 239.82C44.8472 240.484 43.7456 241.108 42.644 241.732C41.4922 242.386 40.3353 243.04 39.1834 243.73C36.9601 245.068 34.7369 246.547 32.3627 248.122C31.6937 248.57 30.9996 248.993 30.3055 249.426C29.1083 250.16 27.8961 250.91 26.8046 251.735C26.5279 251.917 26.2513 252.083 25.9746 252.259C25.3107 252.661 24.6467 253.069 24.0884 253.542C23.0924 254.216 22.2675 255.001 21.4677 255.761C21.1006 256.108 20.7334 256.466 20.331 256.813C18.656 258.332 17.1319 260.008 15.6229 261.669C15.2859 262.006 14.9489 262.328 14.6068 262.65C13.8724 263.349 13.1381 264.049 12.3936 264.904C11.8353 265.563 11.2921 266.243 10.7538 266.917C9.67743 268.271 8.65634 269.544 7.50447 270.701L6.88075 271.31C6.03068 272.13 5.23091 272.95 4.58707 274.002C4.47641 273.71 4.36072 273.423 4.2903 273.368C4.1394 272.986 3.98347 272.633 3.82754 272.291C3.68167 271.964 3.5358 271.632 3.41508 271.335C2.97747 269.976 2.77124 268.547 2.89196 267.471ZM19.9839 293.647L19.1389 293.667C18.4347 293.692 17.7606 293.722 17.2124 293.561C15.975 293.169 14.637 292.404 13.2437 291.362C14.7074 291.468 16.1862 291.478 17.5745 291.448C18.2687 291.428 18.9377 291.408 19.5765 291.408C22.7806 291.408 25.6678 290.824 28.726 290.2L29.5359 290.039C35.3556 288.746 40.798 285.103 45.5967 281.887L46.668 281.168C48.6851 279.819 50.7725 278.43 52.3469 276.825C53.6094 275.985 54.6154 274.918 55.5913 273.886C55.7321 273.74 55.8729 273.584 56.0138 273.438C51.9646 278.35 47.156 283.633 42.1511 287.845C40.6572 289.103 34.3546 293.239 31.5579 293.561C28.1828 293.974 24.4354 294.18 19.9839 293.647ZM77.341 241.928C77.6931 242.124 78.0351 242.31 78.4073 242.497C79.9566 243.206 80.8268 244.343 81.868 246.12L82.205 246.789C82.9897 248.334 83.88 250.085 84.0108 251.942C84.3729 254.111 84.0963 256.481 83.8247 258.775L83.709 259.802C83.2965 262.403 82.7231 265.412 81.531 268.089C80.2483 271.174 78.2162 273.997 76.2545 276.729L75.5 277.786C74.5041 279.205 73.3371 280.815 72.1701 281.867C71.4559 282.395 70.7416 282.758 69.9066 283.17C69.469 283.387 69.0214 283.608 68.5284 283.885L67.9701 284.217C67.1351 284.72 66.3504 285.193 65.4752 285.384C64.6805 285.53 63.8857 285.601 63.086 285.676C62.2309 285.757 61.3707 285.832 60.5106 285.988C59.6605 286.144 58.8105 286.376 57.9604 286.607C57.1556 286.829 56.3558 287.05 55.7724 287.171C55.1738 287.171 54.1778 287.171 53.5742 287.604C53.4082 287.684 53.2372 287.79 53.0561 287.916C52.9103 288.016 52.7896 288.097 52.4978 288.207C51.2956 288.811 50.0532 289.34 48.8159 289.868C47.5785 290.391 46.3361 290.92 45.1339 291.518C43.2024 292.485 41.1552 292.812 39.0124 292.978C41.2809 291.619 43.2124 290.24 43.7708 289.772C54.0219 281.147 63.3777 268.245 67.3766 262.73C68.1059 261.729 68.6592 260.964 69.0163 260.506C69.4137 259.998 69.3584 259.278 68.9006 258.831C68.4379 258.378 67.7186 258.363 67.2257 258.765C66.1694 259.646 63.9461 261.95 61.5921 264.391C59.404 266.655 57.1455 269 56.1949 269.795C55.2945 270.545 54.5199 271.365 53.7704 272.16C52.8499 273.126 51.9848 274.047 50.7725 274.888C49.178 276.473 47.1962 277.796 45.2798 279.074L44.2033 279.799C39.5908 282.889 34.3546 286.396 29.0228 287.578L28.2331 287.739C25.3006 288.333 22.5341 288.892 19.5815 288.892C18.9226 288.892 18.2234 288.912 17.5091 288.932C15.3161 289.013 13.0576 289.058 11.2015 288.595C10.8444 288.489 10.5023 288.57 10.2207 288.751C10.1754 288.706 10.1301 288.67 10.0849 288.63C8.05777 286.446 6.69967 284.599 6.15643 282.043C5.6987 280.544 5.70373 278.586 6.16146 276.594C6.58398 275.119 7.44914 274.279 8.65131 273.116L9.30018 272.482C10.5577 271.224 11.6643 269.836 12.7407 268.492C13.2638 267.828 13.792 267.169 14.3201 266.545C14.9992 265.77 15.6832 265.121 16.3623 264.466C16.7144 264.134 17.0665 263.797 17.5343 263.319C18.9678 261.744 20.4517 260.109 22.021 258.685C22.4335 258.327 22.8258 257.95 23.2182 257.573C23.9677 256.848 24.6819 256.174 25.6024 255.55C26.1658 255.082 26.7291 254.745 27.2925 254.397C27.5943 254.216 27.8961 254.03 28.2582 253.783C29.3498 252.963 30.4966 252.259 31.6283 251.559C32.3527 251.117 33.0669 250.674 33.9019 250.12C36.095 248.661 38.2881 247.202 40.4811 245.883C41.6179 245.199 42.7547 244.555 43.8915 243.911C45.0132 243.277 46.1298 242.643 47.2465 241.968C48.5342 241.198 49.7011 240.776 51.185 240.242L51.5723 240.106C52.2815 239.82 53.026 239.608 53.7704 239.397C54.6104 239.155 55.4454 238.914 56.3407 238.552C56.9946 238.225 57.5379 237.817 58.0509 237.424C58.4936 237.092 58.8759 236.8 59.3587 236.594C59.6404 236.448 59.9674 236.353 60.3044 236.252C60.6464 236.146 61.0035 236.031 61.255 235.925C63.1966 235.331 64.6251 236.166 66.7931 237.596C67.8443 238.295 68.9409 239.01 70.2084 239.508C70.2839 239.538 70.3593 239.563 70.4298 239.578C70.5756 239.704 70.7517 239.805 70.9529 239.855C71.4156 239.971 71.8784 240.066 72.3512 240.167C73.0806 240.313 73.825 240.469 74.7455 240.766C75.5654 240.957 76.4708 241.45 77.341 241.928ZM162.459 229.499C164.42 233.751 167.564 237.143 170.602 240.418C172.428 242.391 174.153 244.248 175.652 246.311C178.912 250.387 180.788 255.902 181.402 263.224C181.457 263.686 181.542 264.24 181.633 264.859C182.116 268.044 183.006 273.972 181.13 276.332C180.627 276.966 179.963 277.293 179.138 277.363C178.897 277.363 178.6 277.384 178.258 277.409C176.955 277.509 175.159 277.64 173.857 276.463C172.619 275.346 171.955 273.192 171.87 270.057C171.819 268.074 171.885 266.016 171.955 263.933C172.061 260.778 172.172 257.517 171.85 254.342C171.04 249.501 167.624 246.21 164.32 243.02C163.188 241.933 162.051 240.836 161.065 239.729C160.13 238.562 159.426 237.268 158.676 235.895C157.912 234.491 157.122 233.042 156.191 231.919C155.98 231.502 155.703 231.084 155.397 230.641C154.964 230.012 154.516 229.358 154.189 228.417C153.998 228.035 153.888 227.421 153.772 226.772C153.646 226.067 153.505 225.322 153.254 224.568C153.037 223.908 152.323 223.561 151.664 223.773C151.005 223.994 150.653 224.709 150.875 225.363C151.086 225.997 151.191 226.626 151.302 227.215C151.453 228.045 151.594 228.83 151.876 229.373C151.886 229.403 151.901 229.419 151.911 229.449C146.146 230.727 139.482 231.668 132.862 229.776C131.635 229.424 128.984 228.402 125.911 227.215C120.242 225.026 113.814 222.55 111.208 222.228C102.843 220.547 95.1522 221.433 88.412 224.819C84.7954 226.364 74.2375 234.269 70.7517 236.997C69.8714 236.599 69.0365 236.076 68.1663 235.502C66.9892 234.732 65.7016 233.942 64.2378 233.54C64.2328 232.644 64.1624 231.784 63.428 230.873C63.3475 230.752 63.2218 230.656 63.1312 230.541C64.8465 229.655 67.6683 227.964 71.7979 225.478C78.4174 221.498 86.6515 216.547 89.75 215.651C104.091 211.51 117.968 215.807 128.104 218.947C133.863 220.728 138.42 222.112 141.705 221.699C147.67 220.899 151.896 212.697 154.622 196.625L154.798 195.619C155.135 193.933 155.482 192.328 156.257 190.909C156.498 193.727 156.946 196.555 157.735 199.393C158.696 202.517 160.698 205.28 162.635 207.947C162.891 208.299 163.087 208.636 163.334 208.979C163.042 209.21 162.831 209.522 162.831 209.925C162.831 212.083 162.343 214.328 161.875 216.506C160.955 220.819 159.989 225.277 162.459 229.499ZM233.407 195.075C231.475 197.485 229.046 199.544 226.47 201.722C225.429 202.603 224.388 203.484 223.266 204.505L221.893 206.1C219.901 208.43 217.844 210.835 215.409 212.732C213.644 214.011 211.939 215.359 210.229 216.718C205.762 220.26 201.547 223.602 196.371 225.579C190.27 228.08 184.047 226.611 176.186 220.809C172.83 218.368 170.391 215.525 167.76 211.017C166.85 209.452 165.748 207.937 164.687 206.468C162.791 203.846 160.995 201.37 160.165 198.678C157.735 189.988 158.505 181.152 159.501 172.849C160.547 164.526 163.002 155.805 166.417 148.288L167.665 145.505C169.013 142.476 170.406 139.346 171.996 136.432C173.157 134.268 174.732 132.442 176.402 130.51C177.393 129.357 178.374 128.16 179.304 126.897C179.032 134.017 179.435 142.858 181.874 151.387C182.272 152.967 182.624 154.628 182.981 156.309C183.137 157.043 183.303 157.793 183.469 158.548C180.139 160.319 177.312 164.501 175.869 167.746C175.119 169.497 173.449 175.672 175.024 179.033C175.532 180.115 176.341 180.845 177.483 181.182C179.073 181.504 180.597 180.95 181.804 180.507C182.222 180.357 182.624 180.201 182.901 180.13C183.886 179.989 184.274 180.206 185.013 181.992C185.411 183.788 185.451 185.585 185.491 187.487C185.521 188.81 185.551 190.119 185.753 191.699C185.863 192.031 185.924 192.534 185.999 193.062C186.185 194.366 186.376 195.704 186.96 196.263C187.926 197.712 189.867 197.626 191.431 197.556C191.723 197.546 192.005 197.531 192.417 197.521C193.75 197.36 195.018 196.635 196.24 195.936C198.172 194.834 199.414 194.215 200.636 194.949C201.185 195.186 201.793 196.197 202.326 197.093C203.156 198.477 204.097 200.052 205.702 200.344C205.868 200.374 206.039 200.389 206.21 200.389C207.004 200.389 207.829 200.057 208.674 199.383C210.887 197.536 212.774 194.315 213.458 191.497C216.265 192.418 219.101 193.093 221.229 193.093C221.657 193.093 222.059 193.062 222.421 193.002C222.507 193.002 222.592 193.012 222.678 193.012C223.563 193.012 224.393 192.926 225.022 192.715C228.352 191.044 228.352 186.813 228.352 184.543C228.352 181.63 227.748 178.595 227.165 175.662C226.737 173.498 226.33 171.45 226.138 169.402C225.917 167.817 225.575 166.222 225.233 164.637C224.916 163.142 224.589 161.653 224.373 160.133C223.95 157.592 223.95 154.507 223.95 151.528C223.95 150.884 223.93 150.26 223.91 149.651C223.845 147.447 223.789 145.55 224.7 143.734C225.535 142.063 226.571 140.669 227.713 139.522C226.415 146.431 230.942 155.337 231.531 156.449C232.225 157.713 232.879 159.021 233.528 160.329C234.855 162.981 236.229 165.729 237.939 168.174C239.05 169.709 240.227 171.123 241.404 172.542C241.314 172.723 241.193 172.894 241.203 173.11C241.54 179.587 237.707 190.436 233.407 195.075ZM245.262 173.297C245.549 173.498 245.821 173.704 245.987 173.825L246.329 174.092C248.406 175.571 250.021 175.571 252.073 175.571C253.124 175.571 253.894 175.299 254.422 174.746C255.212 173.926 255.157 172.803 255.116 171.812C255.101 171.571 255.091 171.314 255.091 171.057C255.091 169.185 254.437 167.953 253.703 166.74C253.627 166.589 253.476 166.322 253.28 165.975C251.56 162.941 250.987 161.461 250.836 160.732C250.997 160.832 251.163 160.938 251.309 161.034C252.289 161.663 253.929 162.734 255.383 161.23C256.505 159.544 254.397 156.309 254.166 156.127C253.527 155.071 252.581 154.271 251.661 153.501C249.915 152.036 249.297 151.377 249.744 150.225C249.865 149.918 250.303 149.485 250.69 149.103C251.464 148.338 252.34 147.472 252.34 146.245C252.34 144.509 250.811 142.576 249.392 141.862C248.547 141.434 247.732 141.399 247.013 141.364C246.641 141.348 246.243 141.333 246.032 141.308C244.88 140.85 243.683 140.377 242.627 139.607C241.088 138.832 239.724 137.871 238.683 136.825C238.301 136.447 237.858 135.783 237.3 134.963C237.038 134.611 236.983 134.334 236.893 133.886C236.832 133.589 236.691 133.197 236.551 132.809C236.551 130.887 236.842 129.664 237.436 129.07C238.231 128.28 239.926 128.3 242.31 128.316L243.527 128.321C248.099 128.321 249.915 130.419 252.42 133.317C253.346 134.384 254.392 135.597 255.7 136.805C256.731 137.68 257.797 138.465 258.849 139.24C260.599 140.528 262.229 141.731 263.516 143.22C263.536 143.24 263.567 143.286 263.587 143.311C264.849 144.795 265.785 146.562 266.147 148.992C266.419 151.02 266.117 152.882 265.805 154.859C265.619 156.022 265.463 157.209 265.393 158.422C265.388 158.457 265.393 158.487 265.388 158.523C265.297 160.259 265.438 162.045 266.202 163.967L266.776 165.648C267.923 168.924 268.748 171.289 267.928 174.852C267.822 175.274 267.636 176.613 267.41 178.314C267.098 180.724 266.388 186.002 265.84 187.688C265.025 187.643 264.236 187.562 263.501 187.276C262.199 186.923 260.986 186.42 259.809 185.937C257.576 185.016 255.262 184.07 252.31 184.07L251.927 184.06C251.107 181.715 249.07 178.414 248.789 177.966C247.637 176.266 246.445 174.756 245.262 173.297ZM338.901 171.545C339.54 170.338 340.158 169.16 340.933 168.255C340.687 168.738 340.45 169.221 340.269 169.684C339.832 170.559 339.535 171.505 339.218 172.512C338.997 173.216 338.765 173.951 338.488 174.64C337.176 177.599 335.134 181.051 332.981 183.934C332.629 184.458 332.276 185.011 331.919 185.565C330.144 188.322 328.313 191.17 325.702 193.007C322.453 194.818 319.41 196.122 316.311 197.078C313.826 197.425 311.583 198.135 309.169 199.347L308.052 200.037C306.769 200.837 305.663 201.536 304.093 202.06C300.814 203.373 297.504 203.373 293.681 203.373C292.55 203.373 291.488 203.212 290.367 203.041C288.339 202.729 286.091 202.709 283.702 202.517C282.605 202.422 281.473 202.336 280.417 202.336C280.342 202.336 280.271 202.336 280.196 202.336C276.625 201.793 273.174 200.298 269.834 198.859C269.059 198.522 268.28 198.185 267.485 197.853C265.956 197.244 264.296 196.756 262.696 196.288C260.529 195.659 258.29 195.005 256.349 194.034C255.393 193.55 254.493 192.901 253.542 192.212C252.551 191.487 251.53 190.743 250.574 190.29C250.006 189.867 249.387 189.495 248.753 189.112C247.808 188.549 246.917 188.01 246.153 187.25C246.017 187.115 245.916 186.999 245.846 186.913C246.258 186.757 247.249 186.536 249.533 186.536C250.237 186.536 250.896 186.556 251.419 186.571L252.279 186.591C254.734 186.591 256.721 187.406 258.828 188.272C260.076 188.785 261.364 189.313 262.681 189.661C263.919 190.159 265.242 190.204 266.524 190.254C266.554 190.254 266.585 190.26 266.61 190.26C267.364 190.285 268.144 190.31 268.873 190.426C269.708 190.592 270.548 190.848 271.383 191.1C272.304 191.377 273.219 191.648 274.175 191.835C276.111 192.157 278.033 192.791 280.231 193.515C282.208 194.315 284.129 194.305 286.106 194.3C290.683 195.055 294.199 195.367 298.243 195.367C300.763 195.367 302.75 195.367 305.165 194.184C307.227 193.485 309.36 192.775 311.221 191.643C313.394 190.199 314.973 188.372 316.155 185.977C316.764 184.971 317.056 183.995 317.337 183.059C317.584 182.233 317.815 181.459 318.258 180.719C318.494 180.336 318.726 179.899 318.967 179.451C319.505 178.449 320.411 176.769 321.044 176.769C321.553 176.769 322.252 177.005 322.936 177.232C323.806 177.524 324.706 177.82 325.612 177.82C329.666 177.82 334.253 177.82 337.14 174.509C337.804 173.614 338.363 172.562 338.901 171.545ZM331.602 164.868C332.216 166.398 332.795 167.842 332.961 169.261C332.961 169.789 333.172 172.205 333.936 173.845C331.768 175.209 328.68 175.294 325.617 175.294C325.114 175.294 324.415 175.058 323.736 174.831C322.86 174.54 321.96 174.243 321.05 174.243C318.912 174.243 317.72 176.462 316.754 178.248C316.538 178.656 316.326 179.048 316.105 179.411C315.501 180.422 315.21 181.393 314.933 182.324C314.687 183.149 314.45 183.929 313.962 184.754C312.931 186.823 311.618 188.342 309.878 189.505C308.303 190.456 306.397 191.1 304.37 191.779C304.315 191.799 304.058 191.89 304.008 191.915C302.167 192.836 300.608 192.836 298.248 192.836C294.355 192.836 290.955 192.534 286.317 191.784C284.3 191.784 282.701 191.784 281.182 191.17C281.157 191.16 280.88 191.065 280.855 191.06C278.828 190.39 276.725 189.696 274.638 189.349C273.798 189.183 272.963 188.926 272.118 188.674C271.207 188.398 270.297 188.126 269.331 187.935C269.014 187.884 268.702 187.889 268.385 187.859C268.808 186.234 269.246 183.461 269.889 178.626C270.096 177.061 270.252 175.828 270.352 175.42C271.343 171.128 270.322 168.194 269.14 164.808L268.662 163.424C269.165 164.028 269.663 164.642 270.166 165.235C273.028 168.647 275.734 171.862 277.228 175.677L277.495 176.698C277.993 178.666 278.501 180.699 281.418 181.781C282.806 182.48 284.909 183.22 286.996 181.665C287.872 181.001 288.365 180.08 288.596 179.078C288.908 179.481 289.23 179.853 289.592 180.14C290.744 181.655 291.664 182.51 293.274 182.913C293.968 183.144 294.788 183.28 295.628 183.28C296.79 183.28 297.997 183.008 298.938 182.334C299.697 181.786 300.608 180.744 300.608 178.887C300.608 176.749 298.676 175.611 296.971 174.605C295.849 173.941 294.577 173.196 294.501 172.572C295.09 172.21 297.982 172.879 299.249 173.468C303.052 176.628 306.281 177.916 308.872 177.267C311.02 176.728 312.413 174.565 311.885 172.461C311.432 171.088 309.817 170.031 308.52 169.185L308.308 169.06C305.98 167.107 303.671 166.347 301.211 165.648C299.863 165.14 298.611 163.831 297.398 162.523C299.114 162.79 300.668 162.931 302.041 162.931C305.376 162.931 307.831 162.282 310.134 161.673C312.257 161.114 314.259 160.586 316.794 160.586C319.797 160.586 322.619 159.232 325.104 157.365C327.307 158.89 330.42 162.045 331.034 163.429C331.215 163.912 331.406 164.39 331.602 164.868ZM346.139 140.488C345.712 141.338 345.103 142.113 344.459 142.934C343.755 143.829 343.031 144.755 342.513 145.802C341.823 147.03 340.727 148.056 339.666 149.052C338.986 149.686 338.328 150.31 337.719 151.025C336.502 152.655 332.397 155.921 329.057 157.355C328.373 156.726 327.734 156.198 327.091 155.71C331.738 151.428 334.776 145.872 334.791 145.837C335.34 144.916 335.999 144.066 336.658 143.22C337.799 141.751 338.971 140.231 339.681 138.284C340.485 135.647 339.756 133.081 339.112 130.811C338.856 129.921 338.604 129.04 338.468 128.215C338.398 127.722 338.363 127.274 338.328 126.816C339.248 126.026 340.697 124.496 342.427 122.413C343.353 123.48 344.172 124.582 344.977 125.855C346.184 127.747 347.14 131.365 347.527 133.816C347.527 133.821 347.522 133.826 347.522 133.831C347.522 133.836 347.527 133.836 347.527 133.846C347.643 134.585 347.714 135.235 347.714 135.672C347.714 137.474 346.934 139.084 346.139 140.488ZM427.53 45.5039C427.203 46.3845 426.911 47.1645 426.765 47.6878C425.311 51.6782 423.45 55.7592 421.81 59.357C420.176 62.96 418.174 66.4069 415.422 70.3671C415.1 71.0112 414.688 71.5748 414.286 72.1434C413.793 72.8277 413.315 73.5121 413.008 74.1461C412.822 74.4279 412.55 74.7902 412.263 75.1776C410.926 76.9841 410.292 77.9251 410.292 78.7655C410.292 79.2838 410.604 79.7417 411.081 79.9329C412.354 80.4411 413.767 80.3707 415.156 80.3103C415.639 80.2902 416.091 80.2751 416.559 80.27C416.217 81.0299 415.533 81.996 415.211 82.4439L414.668 83.2842C413.974 84.9951 413.305 86.3487 412.233 88.1401C410.749 90.8674 408.119 93.0664 405.327 95.3862C404.376 96.1762 403.421 96.9712 402.712 97.6455C401.796 98.189 400.971 98.7375 400.151 99.286C399.372 99.8093 398.587 100.328 397.611 100.921C397.048 101.344 396.424 101.706 395.815 102.064C394.89 102.602 393.939 103.161 393.21 103.885C393.089 104.011 392.973 104.081 392.898 104.137C391.49 105.093 392.274 106.27 392.616 106.769C393.024 107.574 393.979 108.112 394.83 108.585C395.066 108.716 395.272 108.827 395.353 108.877C395.448 108.973 395.554 109.048 395.67 109.108L396.59 109.556C397.133 109.818 397.687 110.08 398.185 110.361C398.154 110.371 398.129 110.382 398.104 110.387C397.707 110.522 397.345 110.653 397.088 110.779C396.318 111.167 395.634 111.65 394.955 112.133C394.387 112.54 393.819 112.953 393.074 113.33C390.318 115.046 386.751 117.195 383.603 118.594C380.197 120.108 377.511 121.075 374.815 121.754C373.452 122.091 372.174 122.408 370.927 122.408C370.711 122.408 370.429 122.393 370.117 122.373C368.186 122.257 366.651 122.247 365.907 123.012C364.267 124.235 365.384 126.056 366.043 127.148C366.496 127.893 367.059 128.819 366.968 129.141C366.802 129.408 365.907 130.142 361.139 131.325C359.931 131.496 357.401 131.672 354.957 131.848C353.01 131.984 351.149 132.12 349.791 132.251C349.278 129.644 348.342 126.434 347.1 124.491C346.149 122.992 345.183 121.698 344.037 120.42C346.572 117.18 349.328 113.159 351.516 109.043C351.617 109.003 351.727 109.013 351.823 108.942C352.477 108.449 353.382 108.022 354.338 107.569C355.143 107.186 355.968 106.799 356.602 106.406C360.626 104.58 364.292 102.517 367.587 100.212C368.583 99.3816 369.659 98.5513 370.741 97.716C371.832 96.8756 372.924 96.0403 373.945 95.1849C375.142 94.1533 376.259 93.0413 377.37 91.9292C378.432 90.8725 379.493 89.8107 380.595 88.8597L385.715 84.7586C386.424 84.0491 387.048 83.2591 387.667 82.459C388.215 81.7495 388.768 81.0399 389.452 80.3505C390.579 79.0624 391.912 77.8094 393.205 76.5917C394.543 75.3387 395.921 74.0455 397.133 72.6566C398.496 71.0917 400.02 69.733 401.494 68.4197C402.495 67.524 403.486 66.6384 404.482 65.6521C405.106 64.9526 406.273 63.6544 405.488 62.4769C404.673 61.2491 402.933 61.863 400.921 62.5775C400.503 62.7285 400.136 62.8593 399.643 63.0153C398.854 63.4128 398.064 63.7902 397.274 64.1676C393.969 65.7628 390.846 67.2724 388.034 69.5116C386.5 70.7696 384.91 71.9018 383.316 73.0491C381.103 74.6342 378.809 76.2696 376.686 78.2069C372.979 81.2412 369.232 84.6479 365.56 87.9841C363.568 89.9818 361.501 91.9091 359.438 93.8414C358.644 94.5861 357.869 95.356 357.069 96.1108C359.604 88.6081 360.963 81.05 360.958 73.5423C360.958 72.2742 360.776 71.0564 360.62 69.8337C363.709 66.734 366.415 64.0569 370.439 62.0492C371.128 61.707 371.893 61.3648 372.667 61.0226C373.497 60.6503 374.332 60.2779 374.966 59.9559C375.655 59.6841 376.39 59.2665 377.144 58.8388C377.868 58.4261 378.658 57.9732 379.342 57.7317C379.382 58.3909 379.181 59.196 378.99 59.981C378.799 60.766 378.598 61.5762 378.598 62.3561C378.598 63.0505 379.161 63.6141 379.855 63.6141C381.591 63.6141 383.004 62.1297 384.141 60.9371L384.538 60.5245C385.474 60.0263 386.248 59.4174 386.942 58.874C387.32 58.5771 387.677 58.2953 387.994 58.0839C389.146 57.3895 390.73 56.826 392.123 56.3228C392.742 56.1013 393.331 55.89 393.798 55.7038C394.89 55.3415 395.886 54.9742 396.882 54.6119C397.837 54.2596 398.803 53.9124 399.915 53.5401C400.659 53.2432 401.399 52.8909 402.118 52.5488C402.686 52.277 403.245 52.0103 403.748 51.804C403.798 52.5186 403.642 53.6608 403.255 54.8333C403.119 55.2459 403.204 55.7038 403.486 56.0359C403.768 56.368 404.205 56.5291 404.628 56.4737C407.027 56.1315 409.225 54.2697 411.001 52.7752C411.353 52.4733 411.695 52.1865 412.032 51.9198C412.746 51.326 413.451 50.6919 414.165 50.0579C415.538 48.8301 416.972 47.562 418.33 46.6563C419.21 46.0726 420.146 45.5492 421.071 45.036C422.379 44.3114 423.722 43.5616 424.698 42.7665C425.452 42.3086 426.227 41.5689 427.042 40.7789C427.585 40.2556 428.556 39.3246 429.24 38.8818C429.35 40.638 428.239 43.6069 427.53 45.5039Z" fill="black"/>
<path d="M228.789 115.907C227.17 115.907 225.61 114.342 224.277 113.008C222.13 111.217 220.58 109.224 219.594 106.965C219.328 106.497 218.996 105.616 218.649 104.68C217.537 101.716 216.149 98.028 213.448 96.9662C212.291 96.5133 211.058 96.6039 209.856 97.2077C206.869 98.4859 206.919 101.832 206.959 104.278L206.964 105.103C206.964 106.185 206.964 107.654 207.326 108.877C207.361 109.264 207.482 109.642 207.593 109.974C207.663 110.19 207.779 110.553 207.804 110.573C207.618 110.94 206.144 111.433 205.354 111.7C204.318 112.047 203.252 112.404 202.472 112.993C200.797 114.332 199.726 116.556 199.163 120.003C199.163 120.355 199.142 120.737 199.122 121.135C199.012 123.203 198.841 126.323 201.698 127.541C202.648 127.953 203.478 128.054 204.152 128.139C204.454 128.175 204.912 128.235 205.007 128.306C205.007 128.306 205.194 128.522 205.194 129.579C205.194 132.039 203.921 133.951 202.467 136.165C200.903 139.678 200.586 142.737 200.586 146.25C200.586 151.126 201.154 154.869 202.492 158.528L202.784 159.142C203.473 160.636 204.514 162.89 206.25 163.494C206.537 163.6 206.833 163.645 207.13 163.645C207.578 163.645 208.046 163.535 208.518 163.293C210.631 162.025 210.4 158.251 210.244 155.75C210.219 155.342 210.198 155.005 210.198 154.769C210.198 153.918 210.118 152.987 210.042 152.046C209.992 151.453 209.937 150.849 209.912 150.265C210.058 150.557 210.203 150.849 210.344 151.141L210.586 151.614C210.691 151.931 210.757 152.328 210.827 152.731C211.008 153.752 211.209 154.915 211.954 155.659C212.19 155.896 212.512 156.032 212.844 156.032C213.176 156.032 213.498 155.901 213.734 155.664C215.877 153.521 215.877 150.28 215.877 147.674C215.877 144.463 215.877 141.434 216.576 138.254C216.873 135.848 218.085 132.507 220.047 130.54C221.345 129.428 222.723 128.864 223.774 129.06C224.504 129.191 225.092 129.679 225.57 130.55C225.907 131.159 226.677 131.375 227.28 131.043C227.889 130.706 228.105 129.941 227.773 129.332C226.697 127.395 225.248 126.771 224.217 126.585C222.386 126.247 220.334 126.982 218.342 128.693C215.716 131.32 214.403 135.32 214.102 137.826C213.362 141.157 213.362 144.468 213.362 147.674C213.362 148.912 213.362 150.235 213.131 151.412C213.07 151.171 213 150.919 212.91 150.658L212.608 150.049C211.964 148.715 211.159 147.055 209.7 145.963C209.378 145.726 208.956 145.656 208.569 145.767C208.181 145.887 207.88 146.184 207.749 146.572C207.19 148.247 207.366 150.29 207.538 152.263C207.613 153.133 207.688 153.989 207.688 154.774C207.688 155.046 207.709 155.438 207.739 155.911C207.98 159.836 207.598 160.923 207.085 161.129C206.355 160.873 205.455 158.925 205.073 158.09L204.806 157.536C203.634 154.301 203.111 150.819 203.111 146.25C203.111 143.059 203.393 140.297 204.675 137.373C206.174 135.129 207.724 132.804 207.724 129.579C207.724 126.318 206.189 125.855 204.479 125.639C203.916 125.568 203.332 125.498 202.704 125.226C201.552 124.733 201.537 123.339 201.647 121.266C201.673 120.823 201.693 120.395 201.678 120.209C202.11 117.607 202.89 115.892 204.027 114.976C204.449 114.659 205.324 114.362 206.169 114.08C207.769 113.542 209.424 112.988 210.068 111.69C210.515 110.799 210.219 109.873 210.002 109.194C209.942 109.008 209.851 108.731 209.846 108.64C209.846 108.505 209.826 108.374 209.781 108.243C209.494 107.372 209.494 106.054 209.494 105.093L209.484 104.232C209.449 101.752 209.519 100.086 210.928 99.4822C211.748 99.0746 212.241 99.1853 212.542 99.3011C214.202 99.9502 215.47 103.327 216.31 105.556C216.712 106.633 217.059 107.559 217.366 108.072C218.438 110.573 220.228 112.882 222.597 114.85C224.091 116.355 226.138 118.413 228.804 118.413C229.498 118.413 230.062 117.849 230.062 117.155C230.062 116.46 229.478 115.907 228.789 115.907Z" fill="black"/>
<path d="M210.163 126.474C209.786 127.51 209.273 130.016 209.851 131.415C210.153 132.135 210.651 132.427 211.008 132.547C211.189 132.608 211.365 132.638 211.536 132.638C212.9 132.638 214.142 130.822 215.933 128.024C216.365 127.349 216.712 126.776 217.1 126.323C218.468 124.033 220.48 123.998 223.87 124.074C224.433 124.089 225.012 124.104 225.595 124.104C226.289 124.104 226.853 123.54 226.853 122.846C226.853 122.785 226.848 122.725 226.838 122.665C226.938 121.99 226.48 121.356 225.806 121.246C224.016 120.944 221.757 119.721 220.354 118.664C219.992 118.372 219.63 118.035 219.262 117.698C217.723 116.264 215.807 114.488 213.076 115.288C210.716 116.224 210.802 119.107 210.852 120.833L210.862 121.427C210.862 122.111 210.983 122.589 211.079 122.977C211.139 123.208 211.184 123.394 211.204 123.621L211.154 123.716C210.762 124.431 210.239 125.392 210.163 126.474ZM212.537 127.304C212.623 127.128 212.668 126.937 212.668 126.746C212.668 126.197 213.05 125.488 213.362 124.924L213.599 124.486C213.689 124.31 213.734 124.114 213.734 123.918C213.734 123.233 213.614 122.755 213.518 122.368C213.438 122.046 213.377 121.809 213.377 121.432L213.367 120.768C213.337 119.771 213.282 117.919 213.89 117.673C214.071 117.623 214.243 117.597 214.419 117.597C215.379 117.597 216.285 118.367 217.552 119.545C217.97 119.932 218.377 120.31 218.815 120.662C219.227 120.974 219.72 121.311 220.268 121.643C218.241 121.885 216.395 122.645 215.138 124.793C214.836 125.095 214.479 125.644 213.82 126.675C213.443 127.264 212.754 128.341 212.15 129.151C212.22 128.421 212.386 127.621 212.537 127.304Z" fill="black"/>
<path d="M118.376 66.6082C118.325 65.9641 118.28 65.3401 118.28 64.7614C118.28 62.658 117.878 60.6251 117.49 58.6677L117.204 57.1883C116.892 55.6283 116.635 54.0735 116.374 52.5135C116.112 50.9335 115.851 49.3484 115.534 47.7684C115.408 47.1343 114.845 46.7167 114.176 46.762C113.532 46.8274 113.039 47.3708 113.039 48.0149V63.5135C113.039 64.7011 112.742 65.959 112.425 67.2976C112.284 67.8913 112.144 68.5002 112.033 69.0587C110.74 74.0606 110.106 79.9178 110.106 86.9676C110.106 88.442 110.303 89.9013 110.489 91.3103C110.579 91.9996 110.675 92.684 110.735 93.2476C110.735 93.6854 110.77 94.1634 110.806 94.6465C110.866 95.4768 110.931 96.3322 110.785 96.9461C110.735 97.092 110.685 97.2329 110.624 97.3688C110.363 97.9978 110.645 98.7174 111.263 98.9992C111.434 99.0746 111.61 99.1099 111.786 99.1099C112.249 99.1099 112.692 98.8532 112.913 98.4154C113.029 98.184 113.124 97.9223 113.2 97.6506C113.753 95.9246 113.839 93.9923 113.924 92.1254C113.985 90.7769 114.04 89.5088 114.276 88.4873C114.769 86.1826 115.388 83.883 116.042 81.4727L117.843 73.1447C117.903 72.7724 117.988 72.4 118.069 72.0226C118.265 71.1219 118.486 70.1054 118.486 68.9581C118.491 68.1631 118.436 67.368 118.376 66.6082ZM115.614 71.4792C115.519 71.8968 115.433 72.3145 115.373 72.6868L114.286 78.1063L113.617 80.8135C113.285 82.0413 112.963 83.2339 112.662 84.4215C112.797 78.7101 113.396 73.8643 114.493 69.6173C114.613 69.0185 114.749 68.4398 114.885 67.8712C115.232 66.3918 115.564 64.9879 115.564 63.5084V62.1397C115.69 63.0153 115.77 63.8959 115.77 64.7614C115.77 65.3955 115.82 66.0798 115.871 66.7893C115.926 67.4938 115.976 68.2184 115.976 68.948C115.976 69.8286 115.8 70.6287 115.614 71.4792Z" fill="black"/>
<path d="M108.924 111.277C108.25 111.136 107.591 111.544 107.43 112.213C107.375 112.445 107.31 112.691 107.234 112.938C106.726 114.402 105.589 115.907 104.589 117.235L104.257 117.678C102.868 119.756 101.983 122.056 101.158 124.33C100.399 127.133 99.5686 129.307 98.5072 131.254C97.2548 134.012 96.284 136.447 95.5546 138.636C95.1925 139.537 94.8705 140.438 94.5587 141.318C94.1462 142.476 93.7438 143.608 93.2961 144.614C92.0236 147.16 90.2631 149.269 88.8597 150.849C88.3315 151.468 87.8386 152.122 87.3507 152.766C86.6817 153.657 86.0479 154.497 85.3638 155.176L83.4776 157.063C83.382 157.154 83.2412 157.24 83.0903 157.34C82.542 157.708 81.7875 158.211 81.36 159.071C81.1889 159.403 81.1839 159.801 81.3398 160.143C81.4907 160.485 81.7925 160.747 82.1547 160.847C82.6376 160.978 83.1406 161.044 83.6587 161.044C85.2582 161.044 86.732 160.43 88.0348 159.886C88.4975 159.69 88.9502 159.504 89.4985 159.313C91.7117 158.306 93.0195 156.55 94.2871 154.849L95.0265 153.868C96.3846 151.931 97.0586 150.039 97.7728 148.031L98.0897 147.135C99.1511 144.584 100.006 142.003 100.816 139.577C101.037 139.019 101.274 138.475 101.515 137.937C102.174 136.432 102.858 134.877 103.185 133.081C103.598 131.033 104.231 128.708 104.83 126.494C105.142 125.457 105.504 124.421 105.866 123.384C106.238 122.328 106.606 121.266 106.872 120.355L107.395 119.198C108.135 117.577 109.06 115.565 109.624 113.718C109.729 113.401 109.82 113.084 109.885 112.767C110.021 112.082 109.593 111.423 108.924 111.277ZM100.715 132.593C100.439 134.123 99.8452 135.476 99.2165 136.91C98.97 137.474 98.7185 138.042 98.462 138.697C97.6471 141.147 96.8021 143.683 95.7558 146.204L95.4087 147.171C94.7247 149.088 94.1362 150.743 93.0094 152.353L92.2751 153.325C91.1483 154.834 90.087 156.258 88.583 156.953C88.1002 157.114 87.5921 157.325 87.069 157.546C86.7773 157.672 86.4805 157.793 86.1888 157.909L87.1495 156.948C87.9593 156.143 88.6736 155.186 89.3677 154.271C89.8204 153.662 90.2832 153.053 90.761 152.489C92.2499 150.819 94.1462 148.539 95.5798 145.676C96.0777 144.559 96.5003 143.371 96.9379 142.154C97.2447 141.298 97.5566 140.428 97.9288 139.487C98.6531 137.313 99.5937 134.958 100.766 132.366L100.776 132.351C100.746 132.437 100.73 132.512 100.715 132.593Z" fill="black"/>
</g>
<defs>
<clipPath id="clip0_24_9">
<rect width="432" height="300" fill="white"/>
</clipPath>
</defs>
</svg>
